<?xml version="1.0" standalone="no"?>
<!DOCTYPE svg PUBLIC "-//W3C//DTD SVG 1.1//EN" "http://www.w3.org/Graphics/SVG/1.1/DTD/svg11.dtd" >
<svg xmlns="http://www.w3.org/2000/svg">
<metadata>Generated by IcoMoon</metadata>
<defs>
<font id="icomoon" horiz-adv-x="1024">
<font-face units-per-em="1024" ascent="960" descent="-64" />
<missing-glyph horiz-adv-x="1024" />
<glyph unicode="&#x20;" horiz-adv-x="512" d="" />
<glyph unicode="&#xe900;" glyph-name="arrow-down" d="M512.427 160.431l-412.161 411.732 60.16 60.587 352.001-351.572 351.147 351.146 60.16-60.587-411.307-411.306z" />
<glyph unicode="&#xe901;" glyph-name="arrow-left" d="M636.151 36.254l-411.735 411.307 412.161 412.158 60.16-60.16-351.575-351.998 351.148-351.147-60.16-60.16z" />
<glyph unicode="&#xe902;" glyph-name="arrow-right" d="M387.848 36.254l-60.16 60.16 351.574 352-351.148 351.145 60.16 60.16 411.734-411.305-412.161-412.16z" />
<glyph unicode="&#xe903;" glyph-name="arrow-up" d="M863.151 263.253l-351.573 351.573-351.147-351.146-60.16 60.587 411.307 411.306 412.16-411.733-60.587-60.587z" />
<glyph unicode="&#xe904;" glyph-name="regresar" d="M64 448c0-247.424 200.576-448 448-448s448 200.576 448 448c0 247.424-200.576 448-448 448s-448-200.576-448-448zM0 448c0 282.769 229.23 512 512 512s512-229.23 512-512c0-282.769-229.231-512-512-512s-512 229.231-512 512zM634.876 682.392l-40.107 40.107-274.774-274.772 274.488-274.206 40.107 40.107-234.097 234.099 234.383 234.665z" />
<glyph unicode="&#xe905;" glyph-name="continuar" d="M960 448c0 247.424-200.576 448-448 448s-448-200.576-448-448c0-247.424 200.576-448 448-448s448 200.576 448 448zM1024 448c0-282.769-229.231-512-512-512s-512 229.231-512 512c0 282.77 229.23 512 512 512s512-229.23 512-512zM389.125 213.606l40.106-40.107 274.773 274.773-274.487 274.206-40.107-40.107 234.1-234.1-234.384-234.667z" />
<glyph unicode="&#xe906;" glyph-name="phone" d="M372.745 770.327c-0.662 0.507-1.262 0.689-1.993 0.674l-0.143-0.003-135.065-2.556c-29.116-0.802-49.017-24.449-45.952-50.061l0.071-0.593c3.167-30.477 9.137-60.559 16.924-91.309 29.045-112.489 87.935-219.032 176.039-307.54 87.979-88.384 194.458-146.867 307.469-175.927l0.457-0.119c29.542-7.987 60.092-13.632 91.29-17.28l0.107-0.013c25.673-3.072 49.126 16.439 50.052 45.7l0.009 0.725 2.129 88.085 0.004 0.235 0.841 46.626c-0.038 1.216-0.414 2.095-0.93 2.778-0.567 0.747-1.54 1.549-3.123 2.018l-0.051 0.017c-45.705 13.572-91.012 32.58-134.976 57.916-1.515 0.789-2.927 0.986-3.964 0.896-0.943-0.077-1.617-0.375-2.202-0.866l-74.445-66.786c-12.301-11.038-30.293-12.966-44.655-4.779-42.662 24.311-82.517 54.562-118.647 90.688-36.126 36.13-66.375 75.985-90.688 118.647-8.205 14.396-6.249 32.434 4.852 44.737l66.738 73.964c0.653 0.781 0.947 1.583 1.024 2.402 0.081 0.884-0.085 2.015-0.802 3.257l-0.090 0.151c-24.884 43.434-44.427 88.829-58.104 134.875l-0.016 0.053c-0.512 1.731-1.415 2.819-2.159 3.389zM369.165 847.784c38.363 0.796 69.355-25.152 79.386-59.059 11.921-40.132 29.069-80.061 51.115-118.538l-0.090 0.151c17.408-30.070 14.481-68.124-9.079-94.935l-0.333-0.378-47.829-53.003c18.138-27.938 39.45-54.353 63.962-78.865 24.533-24.533 50.974-45.858 78.938-64.009l53.734 48.209c27.332 24.017 65.182 25.532 94.272 9.455l0.627-0.346c38.656-22.319 78.519-39.074 118.835-51.055 34.624-10.231 59.081-41.515 59.081-78.635v-0.691l-0.862-47.595-2.125-87.898-0.013-0.9c-1.809-71.228-61.875-129.19-135.919-120.354-34.411 4.023-68.617 10.304-102.127 19.345-125.837 32.401-244.553 97.63-342.542 196.070-97.901 98.351-163.591 217.054-195.993 342.614l-0.043 0.165c-8.394 33.135-15.197 66.936-18.861 102.039-8.673 74.051 49.815 133.836 120.381 135.645l0.239 0.006 135.247 2.559z" />
<glyph unicode="&#xe907;" glyph-name="calendario" d="M729.813 903.261c23.761 0 43.021-19.261 43.021-43.021v-28.239h1.442c102.835 0 185.724-83.838 185.724-186.667v-480c0-102.831-82.889-186.667-185.724-186.667h-524.551c-102.836 0-185.725 83.836-185.725 186.667v480c0 102.829 82.889 186.667 185.725 186.667h39.837v28.239c0 23.76 19.261 43.021 43.021 43.021s43.021-19.261 43.021-43.021v-28.239h311.188v28.239c0 23.76 19.26 43.021 43.021 43.021zM249.725 746.667c-55.182 0-100.392-45.104-100.392-101.333v-69.333h725.333v69.333c0 56.229-45.21 101.333-100.39 101.333h-1.442v-15.49c0-23.76-19.26-43.021-43.021-43.021s-43.021 19.261-43.021 43.021v15.49h-311.188v-15.49c0-23.76-19.261-43.021-43.021-43.021s-43.021 19.261-43.021 43.021v15.49h-39.837zM149.333 490.667v-325.333c0-56.23 45.21-101.333 100.392-101.333h524.551c55.181 0 100.39 45.103 100.39 101.333v325.333h-725.333z" />
<glyph unicode="&#xe908;" glyph-name="cambiar" d="M750.635 760.276c103.706-79.828 156.262-201.65 152.311-323.276l65.741 55.799 55.305-65.152-179.614-152.465-152.418 180.083 65.233 55.211 60.335-71.292c3.29 95.356-37.871 190.899-119.010 253.362-126.72 97.476-305.905 80.189-411.512-35.905l-63.217 57.507c135.388 148.831 364.7 170.854 526.833 46.136l0.013-0.009zM179.613 620.914l152.416-180.078-65.231-55.211-60.338 71.287c-3.287-95.351 37.873-190.895 119.013-253.359 126.717-97.476 305.905-80.192 411.513 35.904l63.215-57.506c-135.39-148.83-364.698-170.854-526.834-46.135l-0.011 0.009c-103.706 79.825-156.263 201.647-152.315 323.273l-65.737-55.799-55.304 65.152 179.613 152.464z" />
<glyph unicode="&#xe909;" glyph-name="menu-ic" d="M115.2 106.667v85.333h793.6v-85.333h-793.6zM115.2 405.333v85.333h793.6v-85.333h-793.6zM115.2 704v85.333h793.6v-85.333h-793.6z" />
<glyph unicode="&#xe90a;" glyph-name="cerrar" d="M159.589 730.429l69.978 69.977 291.121-291.12 291.115 291.114 69.978-69.977-291.115-291.114 291.115-291.115-69.978-69.978-291.115 291.115-291.121-291.119-69.977 69.978 291.121 291.119-291.121 291.12z" />
<glyph unicode="&#xe90b;" glyph-name="check" d="M512 960c-282.418 0-512-229.582-512-512s229.582-512 512-512c282.419 0 512 229.581 512 512s-230.050 512-512 512zM446.071 231.509l-203.865 203.866 65.929 65.929 137.936-137.937 268.39 268.393 65.929-65.929-334.319-334.321z" />
<glyph unicode="&#xe90c;" glyph-name="coin-ic" d="M116.055 447.996c0 218.677 177.271 395.949 395.949 395.949 218.675 0 395.947-177.271 395.947-395.949 0-218.675-177.271-395.947-395.947-395.947s-395.949 177.271-395.949 395.947zM512.004 900.833c-250.096 0-452.838-202.741-452.838-452.838 0-250.091 202.741-452.834 452.838-452.834 250.091 0 452.834 202.743 452.834 452.834 0 250.096-202.743 452.838-452.834 452.838zM557.794 189.44c4.553-17.067 21.905-27.021 38.972-22.473 17.067 4.553 27.021 21.905 22.468 38.972l-5.21 19.153c7.68 3.204 11.746 5.312 11.746 5.312 27.593 13.367 50.347 30.434 64.853 50.628 23.040 31.292 28.732 67.985 16.785 111.787-5.973 22.187-14.507 40.107-25.886 53.478-11.379 13.367-24.179 23.607-38.114 30.434-14.793 7.394-30.438 12.514-46.366 15.074-17.353 3.132-34.701 5.12-51.486 6.259-17.92 1.421-34.415 2.846-49.493 4.553-17.067 1.988-31.287 5.687-43.52 11.661-15.074 7.113-25.314 19.627-29.581 36.124-5.12 18.773-0.853 35.555 12.233 48.925 21.333 21.902 66.842 34.702 106.095 26.453 4.267-0.853 9.958-2.275 16.213-4.267 17.067-5.12 34.987 2.275 43.238 17.635 5.687 10.24 5.973 22.187 1.135 32.711-5.12 11.093-15.074 18.773-27.307 21.333-5.402 1.137-10.807 1.991-16.209 2.844h-0.004c-18.487 2.275-35.84 1.137-59.162-0.569-3.648-0.502-7.219-1.075-10.709-1.705l-5.21 19.337c-4.553 17.067-21.901 27.022-38.967 22.471s-27.023-21.903-22.472-38.969l5.717-21.213c-6.78-2.936-10.564-4.952-10.564-4.952s-21.902-12.8-30.72-20.195c-20.48-17.067-33.849-36.409-41.529-59.449-7.395-22.471-7.395-48.071 0-75.948 5.689-21.615 14.222-38.967 24.747-51.2 10.809-12.514 23.325-22.187 36.978-28.442 14.791-6.827 30.437-11.947 46.932-15.078 17.353-3.127 34.705-5.402 50.918-6.255 17.92-1.139 34.701-2.846 50.347-5.12 17.067-2.56 31.573-7.113 43.802-13.372 15.078-7.962 25.6-21.047 29.867-37.547 5.12-19.341 0.853-37.547-12.8-52.621-11.947-13.086-29.581-22.754-53.76-29.299-26.167-7.108-51.767-7.962-76.228-2.56-7.966 1.707-15.646 3.985-23.612 6.827-8.247 2.846-16.495 3.132-23.893 1.139v0.286c-8.815-2.278-16.212-7.68-20.763-15.932l-3.129-5.687c-5.12-9.101-5.689-19.627-1.991-29.299 3.698-9.954 11.662-17.348 21.616-20.762 11.947-3.985 23.612-6.827 35.558-8.533 22.187-3.132 49.207-2.56 72.247 1.988 4.036 0.828 7.949 1.681 11.733 2.56l4.484-16.499z" />
<glyph unicode="&#xe90d;" glyph-name="coinv2" d="M115.769 448.149c0 218.752 177.335 396.087 396.090 396.087 218.752 0 396.087-177.335 396.087-396.087 0-218.756-177.335-396.092-396.087-396.092-218.755 0-396.090 177.335-396.090 396.092zM511.859 901.125c-250.174 0-452.979-202.805-452.979-452.976 0-250.176 202.805-452.979 452.979-452.979 250.172 0 452.975 202.803 452.975 452.979 0 250.17-202.803 452.976-452.975 452.976zM612.036 451.964c10.492-8.798 18.569-19.767 25.344-32.849l0.265 0.986c6.775-13.082 10.185-29.137 10.406-47.505 0.525-36.407-12.194-64.691-37.641-84.279-16.734-13.124-38.323-21.069-64.094-25.434l0.457-21.598c0.307-18.039-14.549-32.371-33.254-32.286-18.705 0.081-33.877 14.711-34.185 32.751l-0.218 18.368c-21.094 2.129-39.77 6.43-56.624 13.41-8.986 3.465-17.619 8.243-26.077 13.679-21.359 13.47-24.771 41.847-7.665 59.093l3.454 3.302c13.563 13.615 35.792 14.353 52.616 3.153 4.612-3.349 9.399-6.042 14.272-8.401 14.537-7.415 30.473-10.982 48.405-11.209 15.697-0.333 27.814 2.406 36.173 7.561s12.612 12.817 12.591 22.327c-0.286 8.529-3.494 15.727-10.065 21.359-6.566 5.636-14.771 10.65-24.951 15.138-10.27 4.16-21.222 8.503-33.719 12.557-12.501 4.053-24.738 9.092-37.137 14.878-12.403 5.79-23.768 12.706-34.007 21.086-10.327 8.047-18.835 18.778-25.101 31.019-6.521 12.663-9.852 27.639-10.070 46.007-0.357 23.337 5.013 43.376 16.021 59.793s26.538 29.156 46.502 37.891c9.553 4.131 19.529 7.092 30.007 9.213l-0.286 20.852c-0.307 18.040 14.549 32.369 33.25 32.287 18.705-0.082 33.877-14.711 34.185-32.751l0.132-18.697c16.286-2.251 31.45-5.962 45.995-11.972 2.999-1.045 5.751-2.357 8.457-3.646 1.233-0.588 2.458-1.171 3.691-1.722 25.314-12.416 32.218-44.196 13.039-63.704-13.218-13.711-35.204-16.271-51.951-6.15-2.718 1.747-5.35 3.102-7.565 4.244-0.853 0.437-1.643 0.844-2.351 1.23-11.375 5.512-24.137 8.58-37.009 8.508s-22.921-1.956-30.332-6.309c-7.317-4.025-10.97-10.793-10.773-19.648 0.034-8.108 3.332-14.977 9.647-20.191s14.694-9.57 24.96-13.73c10.355-3.831 21.739-7.936 34.15-12.318s24.649-9.421 37.137-14.882c12.493-5.457 23.77-12.706 33.92-21.41z" />
<glyph unicode="&#xe90e;" glyph-name="financiamiento-ic" d="M204.797 819.198c-35.346 0-64-28.654-64-64v-614.718c0-35.349 28.654-64 64-64h614.719c35.349 0 64 28.651 64 64v614.718c0 35.346-28.651 64-64 64h-614.719zM76.797 755.198c0 70.693 57.307 128 128 128h614.719c70.694 0 128-57.307 128-128v-614.718c0-70.694-57.306-128-128-128h-614.719c-70.693 0-128 57.306-128 128v614.718zM340.156 504.636c-17.6 0-32 17.28-32 38.398v44.797h-44.803c-21.12 0-38.4 14.4-38.4 32s17.28 32 38.4 32h44.803v44.803c0 21.12 14.4 38.4 32 38.4s32-17.28 32-38.4v-44.803h44.797c21.118 0 38.398-14.4 38.398-32s-17.28-32-38.398-32h-44.797v-44.797c0-21.118-14.4-38.398-32-38.398zM602.876 186.551c-12.48 12.48-10.56 34.88 4.48 49.92l31.68 31.68-31.68 31.68c-15.040 15.040-16.96 37.44-4.48 49.92s34.88 10.56 49.92-4.48l31.68-31.68 31.68 31.68c15.040 15.040 37.44 16.96 49.92 4.48s10.56-34.88-4.48-49.92l-31.68-31.68 31.68-31.68c15.040-15.040 16.96-37.44 4.48-49.92s-34.88-10.56-49.92 4.48l-31.68 31.68-31.68-31.68c-15.040-15.040-37.44-16.96-49.92-4.48zM761.267 587.831h-153.6c-21.12 0-38.4 14.4-38.4 32s17.28 32 38.4 32h153.6c21.12 0 38.4-14.4 38.4-32s-17.28-32-38.4-32zM301.75 364.156c0 21.12 17.28 38.4 38.4 38.4s38.4-17.28 38.4-38.4c0-21.12-17.28-38.4-38.4-38.4s-38.4 17.28-38.4 38.4zM340.15 210.556c-21.12 0-38.4-17.28-38.4-38.4s17.28-38.4 38.4-38.4c21.12 0 38.4 17.28 38.4 38.4s-17.28 38.4-38.4 38.4zM263.353 236.151h153.6c21.118 0 38.398 14.4 38.398 32s-17.28 32-38.398 32h-153.6c-21.12 0-38.4-14.4-38.4-32s17.28-32 38.4-32z" />
<glyph unicode="&#xe90f;" glyph-name="ticket-ic" d="M290.561 840.544h454.8c-13.184-19.667-20.877-43.305-20.877-68.706v-74.667c0-1.621 0.141-3.211 0.405-4.756v-597.418l-70.81-61.308-80.405 69.615c-10.436 9.037-25.933 9.024-36.352-0.038l-79.974-69.542-80.367 69.581c-10.438 9.037-25.933 9.024-36.351-0.038l-79.936-69.508-70.4 61.218v645.301c0 55.51 44.757 100.267 100.267 100.267zM853.807 895.446c-1.805 0.37-3.678 0.564-5.594 0.564h-557.652c-86.143 0-155.733-69.59-155.733-155.733v-657.922c0-8.354 3.697-15.851 9.544-20.932l-0.008-0.013 98.133-85.333c10.435-9.071 25.961-9.071 36.396 0l79.975 69.547 80.369-69.585c10.436-9.037 25.933-9.020 36.352 0.038l79.974 69.547 80.367-69.585c10.419-9.020 25.886-9.020 36.305 0l98.551 85.342c5.862 5.086 9.57 12.591 9.57 20.962v587.095h121.195c38.784 0 70.4 31.617 70.4 70.4v32c0 66.35-52.501 120.675-118.144 123.609zM780.356 724.904v9.81c0 1.622-0.137 3.211-0.405 4.756v32.367c0 37.59 30.677 68.267 68.267 68.267s68.267-30.676 68.267-68.267v-32c0-8.15-6.784-14.933-14.933-14.933h-121.195zM535.475 573.442c0 11.093-1.707 20.48-5.547 28.16s-8.533 14.080-14.507 19.2c-5.973 5.12-12.373 9.387-19.2 12.8-7.253 3.413-14.080 5.973-21.333 8.533l-3.878 1.361c-5.692 1.99-10.863 3.798-15.748 5.892-5.973 2.56-10.667 5.12-14.507 8.107-3.413 2.987-5.547 7.253-5.547 11.947 0 5.547 2.133 9.387 6.4 11.947s10.24 3.84 17.493 3.84c7.253 0 14.507-1.707 21.333-5.12 1.707-0.853 3.413-1.707 5.547-2.987 9.813-5.973 22.187-4.267 29.867 3.84 11.093 11.947 7.253 30.72-6.827 37.973-1.668 1.002-3.601 1.743-5.385 2.427v0c-0.495 0.189-0.977 0.375-1.442 0.56-7.68 2.987-15.787 5.12-24.32 6.4v9.813c0 11.947-9.387 21.333-21.333 21.333s-21.333-9.387-21.333-21.333v-11.52c-5.547-1.28-10.666-2.987-15.359-5.12-11.52-5.12-20.48-12.8-26.88-22.613s-9.813-21.76-9.813-35.84c0-10.667 1.707-20.053 5.547-27.307 3.413-7.253 8.107-13.653 14.080-18.347 5.973-5.12 12.373-8.96 19.2-12.373 7.252-3.413 14.079-6.4 21.332-8.533l3.2-1.124c5.952-2.084 11.285-3.952 16-6.129 5.973-2.56 10.667-5.547 14.507-8.96s5.547-7.68 5.547-12.8c0-5.973-2.56-10.24-7.253-13.227-5.12-2.987-11.947-4.693-20.907-4.693-10.24 0-19.627 2.133-27.733 6.4-2.985 1.28-5.545 2.986-8.105 4.693v0h-0.001c-9.813 6.4-22.187 5.973-30.293-2.133l-2.133-2.133c-10.24-10.24-8.107-27.309 3.84-35.415 4.693-3.413 9.813-5.973 14.933-8.107 8.96-3.84 19.2-5.973 30.292-7.253v-9.387c0-8.96 5.547-16.64 13.653-19.627 2.133-0.853 4.693-1.707 7.68-1.707s5.12 0.427 7.68 1.707c8.107 2.987 13.653 10.667 13.653 19.627v11.52c13.653 2.987 25.6 7.253 34.987 14.933 14.933 11.949 22.187 28.589 22.187 50.349l0.427 0.427zM297.828 245.338c0 15.317 12.416 27.733 27.733 27.733h264.105c15.317 0 27.733-12.416 27.733-27.733 0-15.313-12.416-27.733-27.733-27.733h-264.105c-15.317 0-27.733 12.42-27.733 27.733zM325.562 401.489c-15.317 0-27.733-12.416-27.733-27.733s12.416-27.733 27.733-27.733h264.105c15.317 0 27.733 12.416 27.733 27.733s-12.416 27.733-27.733 27.733h-264.105z" />
<glyph unicode="&#xe910;" glyph-name="manejo" d="M512-7.108c-250.878 0-455.11 204.233-455.11 455.113s204.231 455.11 455.11 455.11c250.88 0 455.113-204.231 455.113-455.11s-204.233-455.113-455.113-455.113zM512 846.225c-219.59 0-398.22-178.631-398.22-398.221 0-219.593 178.631-398.225 398.22-398.225 219.593 0 398.225 178.633 398.225 398.225 0 219.59-178.633 398.221-398.225 398.221zM423.824 101.265c-4.551 0-9.102 0.567-13.369 1.707-135.68 33.847-236.089 145.353-255.715 283.593-2.276 15.927 2.56 32.141 13.084 44.373 10.809 12.514 26.453 19.627 42.667 19.627h41.813c125.44 0 227.555-102.118 227.555-227.558v-65.421c0-17.634-7.966-33.847-21.901-44.659-9.958-7.68-21.905-11.947-34.135-11.947v0.286zM210.49 393.673c16.783-114.061 99.84-206.788 212.48-235.234v64.853c0 94.153-76.515 170.667-170.667 170.667h-41.813v-0.286zM600.179 101.265c-12.233 0-24.179 3.981-34.133 11.947-13.939 10.807-21.901 27.021-21.901 44.659v65.421c0 125.44 102.114 227.554 227.554 227.554h41.813c16.499 0 31.859-7.108 42.667-19.627 10.807-12.228 15.36-28.442 13.086-44.373-19.627-138.522-120.038-249.741-255.718-283.588-4.548-1.139-9.101-1.707-13.367-1.707v-0.286zM813.227 394.526l-41.527-0.853c-94.153 0-170.667-76.514-170.667-170.667v-64.853c112.64 28.732 195.699 121.173 211.913 236.092l0.282 0.282zM512 359.539c-48.922 0-88.745 39.825-88.745 88.747 0 48.926 39.823 88.749 88.745 88.749 48.926 0 88.747-39.823 88.747-88.749 0-48.922-39.821-88.747-88.747-88.747zM512 480.145c-17.634 0-31.855-14.221-31.855-31.859 0-17.634 14.221-31.855 31.855-31.855 17.638 0 31.859 14.221 31.859 31.855 0 17.638-14.221 31.859-31.859 31.859zM776.533 499.772h-170.667l-8.533 11.379c-20.48 27.59-51.767 43.519-85.333 43.519-33.562 0-64.853-15.929-85.333-43.519l-8.532-11.379h-170.667c-24.747 0-47.502 12.514-60.871 33.565-13.369 20.765-15.075 46.649-4.551 69.12 59.733 127.715 189.155 210.489 330.24 210.489s270.507-82.489 329.954-210.489c10.526-22.471 8.819-48.355-4.548-69.12-13.372-21.051-36.126-33.565-60.873-33.565h-0.286zM633.745 556.661h142.788c7.68 0 11.665 4.835 12.8 7.111 1.425 1.991 4.267 7.68 0.853 14.507-50.347 107.805-159.855 177.493-278.468 177.493-118.615 0-228.125-69.689-278.472-177.493-3.129-6.827-0.285-12.515 0.853-14.507 1.422-2.275 5.404-7.111 12.8-7.111h142.791c31.005 35.271 74.809 55.182 121.742 55.182s90.739-19.911 121.741-55.182h0.572z" />
<glyph unicode="&#xe911;" glyph-name="cita-ic" d="M992.858 586.668l-79.787 79.787c-27.307 26.88-71.253 26.88-98.133 0l-69.973-69.973c0 0-2.133-1.707-2.987-2.987l-188.587-189.015c-45.653 6.4-92.16-2.56-132.694-26.027-96-55.467-131.413-176.64-80.213-275.2 5.12-10.24 15.36-17.493 26.453-19.2 11.52-1.707 23.040 2.133 31.147 10.24l93.014 93.013 18.347-4.267 4.267-18.347-93.014-93.44c-8.107-8.107-11.947-19.627-10.24-31.147s8.96-21.333 19.201-26.453c29.867-15.36 62.72-23.040 95.573-23.040 16.213 0 32.853 2.133 49.067 5.973 54.187 13.227 99.413 46.507 128.427 94.293 25.173 41.387 34.987 89.173 28.16 136.533l179.2 179.627c3.413 2.56 6.4 5.12 9.387 8.107l73.387 73.387c26.88 26.88 26.88 71.255 0 98.135zM868.271 466.347c0 0-2.133-2.133-3.413-2.987-1.707-1.28-2.987-2.133-4.267-3.84l-194.56-194.987c-8.96-8.96-12.373-21.76-9.387-34.133 8.533-34.987 2.987-71.68-15.787-102.4s-48.64-52.48-83.627-61.44c-13.653-3.413-27.733-4.693-41.813-3.413l64.427 64.427c8.96 8.96 12.373 21.76 9.813 33.707l-14.080 60.16c-2.987 13.653-13.653 23.893-26.88 27.307l-60.16 14.080c-12.373 2.987-25.173-0.853-33.707-9.813l-64.428-64.427c-3.84 50.347 20.907 100.267 66.988 127.147 30.293 17.493 65.707 22.613 99.84 14.507 12.373-2.987 25.173 0.427 34.133 9.813l199.253 199.255c0 0 2.133 1.707 2.987 2.987l70.827 70.827 75.52-75.093-71.68-71.681zM240.212 96.849h-78.080c-26.88 0-48.64 21.76-48.64 48.64v363.52h481.708c20.053 0 36.267 16.213 36.267 36.268 0 20.053-16.213 36.267-36.267 36.267h-481.708v95.573c0 26.88 21.76 48.64 48.64 48.64h56.747v-11.947c0-21.333 16.64-38.4 37.12-38.4s37.547 17.067 37.547 38.4v11.947h334.508v-11.947c0-21.333 16.64-38.4 37.547-38.4s37.547 17.067 37.547 38.4v11.947h58.88c20.053 0 36.267 16.213 36.267 36.267s-16.213 36.267-36.267 36.267h-58.88v46.080c0 21.333-16.64 38.4-37.547 38.4s-37.547-17.067-37.547-38.4v-46.080h-334.508v46.080c0 21.333-16.64 38.4-37.547 38.4-20.48 0-37.12-17.067-37.12-38.4v-46.080h-56.747c-66.56 0-121.173-54.187-121.173-121.173v-531.628c0-66.987 54.187-121.173 121.173-121.173h78.080c20.053 0 36.267 16.213 36.267 36.267s-16.213 36.267-36.267 36.267z" />
<glyph unicode="&#xe912;" glyph-name="play" d="M512 960c-282.531 0-512-229.469-512-512s229.469-512 512-512c282.53 0 512 229.47 512 512s-229.47 512-512 512zM512 913.455c257.28 0 465.455-208.175 465.455-465.455s-208.175-465.455-465.455-465.455c-257.28 0-465.455 208.175-465.455 465.455s208.175 465.455 465.455 465.455zM779.635 468.365l-395.638 221.092c-3.375 1.978-7.331 3.142-11.287 3.258-12.8 0.233-23.389-10.007-23.622-22.924 0-0.233 0-0.465 0-0.698v-442.183c0-12.8 10.24-23.386 23.040-23.505 4.189 0 8.262 1.050 11.869 3.145l395.638 221.090c8.375 4.77 13.030 14.080 11.635 23.62-1.045 7.215-5.355 13.5-11.635 17.105z" />
<glyph unicode="&#xe913;" glyph-name="ic-add" d="M452.358 902.878h95.003v-395.236h395.231v-95.007h-395.231v-395.227h-95.003v395.227h-395.238v95.007h395.238v395.236z" />
<glyph unicode="&#xe914;" glyph-name="ic-minus" d="M57.12 507.642v-95.007h885.472v95.007h-885.472z" />
<glyph unicode="&#xe915;" glyph-name="ic-sm-transmision" d="M920.32 946.774c-35.413 0-64.427-29.013-64.427-64.427v-371.628h-79.36c-11.093 44.374-32.853 85.334-64 119.041v252.587c0.853 35.413-27.307 64.854-62.72 66.134-35.413 0.853-64.853-27.307-66.133-62.72 0-1.28 0-2.133 0-3.413v-174.080c-23.467 6.827-47.36 10.24-71.68 10.667-24.32 0-48.213-3.84-71.68-10.667v174.080c0.853 35.413-27.307 64.854-62.72 66.134-35.413 0.853-64.853-27.307-66.133-62.72 0-1.28 0-2.133 0-3.413v-252.587c-31.147-33.707-52.907-74.667-64-119.041h-143.36c-35.413 0-64.427-28.587-64.427-64.427v-436.053c0.853-35.413 30.294-63.573 66.134-62.72 34.133 0.853 61.867 28.587 62.72 62.72v371.627h79.36c11.093-44.373 32.853-85.333 64-119.040v-252.587c0.853-35.413 30.293-63.573 66.133-62.72 34.133 0.853 61.867 28.587 62.72 62.72v174.507c23.467-6.827 47.36-10.667 71.68-10.667s48.213 3.84 71.68 10.667v-174.507c0.853-35.413 30.293-63.573 66.133-62.72 34.133 0.853 61.867 28.587 62.72 62.72v252.587c31.147 33.707 52.907 74.667 64 119.040h79.36v-371.627c0.853-35.413 30.293-63.573 66.133-62.72 34.133 0.853 61.867 28.587 62.72 62.72v872.108c0 35.413-29.013 64.427-64.427 64.427zM368.213 446.293c0 79.36 64.427 144.214 143.787 144.214s144.213-64.428 144.213-143.788c0-79.36-64.427-144.213-143.787-144.213s-143.787 64.427-144.213 144.213z" />
<glyph unicode="&#xe916;" glyph-name="ic-sm-vel" d="M85.227 277.756c0 54.903 10.425 107.418 29.399 155.669l155.24-79.787 38.958 75.802-155.21 79.77c68.783 106.084 183.383 179.828 315.563 192.994v-174.737h85.227v174.737c132.245-13.174 246.895-86.987 315.665-193.16l-154.893-79.603 38.959-75.802 154.884 79.603c18.931-48.201 29.329-100.651 29.329-155.486 0-12.783-0.853-25.57-2.133-37.926h85.227c0.853 12.356 1.707 25.143 1.707 37.926 0 282.1-229.687 511.786-511.787 511.786s-511.36-229.686-511.36-511.786c0-12.386 0.8-24.367 1.625-36.727l0.080-1.199h85.653c-1.278 12.356-2.131 25.143-2.131 37.926zM423.235 336.149l-99.861 155.511 71.714 46.049 99.914-155.587c5.466 0.866 11.072 1.314 16.785 1.314 58.837 0 106.534-47.697 106.534-106.534 0-58.833-47.697-106.53-106.534-106.53s-106.532 47.697-106.532 106.53c0 21.926 6.624 42.308 17.98 59.247zM490.479 276.902c0 11.767 9.54 21.308 21.308 21.308s21.308-9.54 21.308-21.308c0-11.767-9.54-21.303-21.308-21.303s-21.308 9.536-21.308 21.303z" />
<glyph unicode="&#xe917;" glyph-name="rs-fb" d="M914.287 960h-804.573c-29.098 0-57.004-11.559-77.58-32.135s-32.135-48.482-32.135-77.58v-804.573c0-29.099 11.559-57.003 32.135-77.577 20.575-20.578 48.482-32.137 77.58-32.137h313.714v348.139h-144v163.861h144v124.891c0 142.057 84.573 220.526 214.101 220.526 62.037 0 126.903-11.063 126.903-11.063v-139.429h-71.471c-70.426 0-92.39-43.703-92.39-88.526v-106.4h157.21l-25.139-163.861h-132.070v-348.139h313.715c29.099 0 57.003 11.558 77.577 32.137 20.578 20.574 32.137 48.478 32.137 77.577v804.573c0 29.098-11.558 57.004-32.137 77.58-20.574 20.575-48.478 32.135-77.577 32.135z" />
<glyph unicode="&#xe918;" glyph-name="rs-ig" d="M512.047 960c-139.051 0-156.502-0.608-211.116-3.093-54.507-2.496-91.713-11.125-124.268-23.787-33.675-13.078-62.24-30.571-90.7-59.041-28.48-28.459-45.974-57.024-59.094-90.689-12.693-32.566-21.334-69.782-23.787-124.268-2.443-54.614-3.083-72.076-3.083-211.127 0-139.055 0.619-156.45 3.093-211.063 2.507-54.507 11.136-91.712 23.787-124.271 13.088-33.673 30.581-62.238 59.051-90.697 28.448-28.48 57.014-46.016 90.668-59.093 32.576-12.663 69.793-21.291 124.289-23.787 54.614-2.487 72.054-3.093 211.095-3.093 139.063 0 156.463 0.606 211.076 3.093 54.507 2.496 91.755 11.123 124.331 23.787 33.664 13.077 62.187 30.613 90.637 59.093 28.48 28.459 45.973 57.024 59.093 90.688 12.587 32.567 21.227 69.781 23.787 124.267 2.453 54.613 3.093 72.021 3.093 211.076 0 139.051-0.64 156.502-3.093 211.116-2.56 54.507-11.2 91.713-23.787 124.268-13.12 33.675-30.613 62.24-59.093 90.7-28.48 28.48-56.96 45.974-90.667 59.041-32.644 12.661-69.871 21.291-124.378 23.787-54.613 2.485-72 3.093-211.093 3.093h0.158zM466.116 867.732c13.632 0.021 28.843 0 45.931 0 136.708 0 152.909-0.491 206.895-2.944 49.92-2.283 77.013-10.624 95.061-17.632 23.893-9.28 40.93-20.373 58.837-38.294 17.92-17.92 29.013-34.987 38.315-58.88 7.010-18.027 15.36-45.12 17.634-95.041 2.453-53.974 2.987-70.188 2.987-206.83 0-136.64-0.533-152.853-2.987-206.827-2.283-49.92-10.624-77.013-17.634-95.040-9.28-23.893-20.395-40.909-38.315-58.82-17.92-17.92-34.931-29.013-58.837-38.293-18.027-7.040-45.141-15.36-95.061-17.643-53.973-2.453-70.187-2.987-206.895-2.987-136.715 0-152.918 0.533-206.892 2.987-49.92 2.304-77.014 10.645-95.073 17.655-23.893 9.28-40.96 20.373-58.88 38.293s-29.014 34.944-38.315 58.85c-7.008 18.027-15.36 45.12-17.632 95.040-2.453 53.973-2.944 70.187-2.944 206.912 0 136.728 0.491 152.856 2.944 206.83 2.283 49.92 10.624 77.014 17.632 95.062 9.28 23.894 20.395 40.96 38.315 58.88s34.987 29.014 58.88 38.315c18.048 7.040 45.152 15.36 95.073 17.654 47.233 2.133 65.537 2.773 160.961 2.88v-0.128zM785.353 782.718c-33.92 0-61.44-27.488-61.44-61.42 0-33.92 27.52-61.44 61.44-61.44s61.44 27.52 61.44 61.44c0 33.92-27.52 61.441-61.44 61.441v-0.021zM512.047 710.931c-145.206 0-262.935-117.729-262.935-262.935s117.729-262.882 262.935-262.882c145.207 0 262.895 117.675 262.895 262.882 0 145.206-117.696 262.935-262.903 262.935h0.009zM512.047 618.663c94.251 0 170.671-76.406 170.671-170.668 0-94.251-76.42-170.671-170.671-170.671-94.261 0-170.668 76.42-170.668 170.671 0 94.261 76.406 170.668 170.668 170.668v0z" />
<glyph unicode="&#xe919;" glyph-name="rs-tiktok" d="M981.333 540.074c-92.271-0.211-182.276 27.256-257.306 78.52v-357.529c-0.026-66.219-21.231-130.854-60.779-185.259s-95.556-95.987-160.533-119.189c-64.973-23.202-135.824-26.918-203.072-10.65s-127.689 51.746-173.242 101.692c-45.553 49.941-74.047 111.97-81.671 177.788s5.985 132.288 39.007 190.524c33.022 58.236 83.884 105.459 145.783 135.359s131.888 41.048 200.606 31.956v-179.824c-31.446 9.438-65.213 9.156-96.478-0.815-31.266-9.967-58.432-29.111-77.619-54.699-19.187-25.583-29.414-56.303-29.219-87.765 0.195-31.467 10.799-62.067 30.301-87.433 19.502-25.37 46.902-44.207 78.288-53.824s65.155-9.523 96.481 0.273c31.326 9.792 58.611 28.787 77.952 54.263 19.345 25.476 29.76 56.137 29.76 87.603v698.935h184.435c-0.128-14.867 1.178-29.713 3.895-44.351 6.409-32.678 19.738-63.764 39.164-91.358s44.548-51.114 73.826-69.123c41.651-26.288 90.487-40.3 140.42-40.29v-174.804z" />
<glyph unicode="&#xe91a;" glyph-name="rs-tw" d="M2.492 938.667l395.354-527.142-397.846-428.591h89.546l348.32 375.249 281.425-375.249h304.708l-417.609 556.787 370.317 398.946h-89.545l-320.777-345.584-259.187 345.584h-304.708zM134.173 872.898h139.982l618.146-824.198h-139.981l-618.147 824.198z" />
<glyph unicode="&#xe91b;" glyph-name="rs-whatsapp" d="M862.605 799.203c-85.372 85.421-199.206 132.349-320.422 132.349-249.605 0-452.939-202.416-453.156-450.895 0-79.582 20.855-157.001 60.392-225.553l-64.085-233.775 240.264 62.716c66.257-35.9 140.771-54.929 216.585-54.929h0.218c249.604 0 452.937 202.415 453.154 451.11-0.218 120.454-47.356 233.772-132.949 318.977zM542.182 105.455c-67.776 0-134.035 18.163-191.82 52.331l-13.686 8.218-142.507-37.193 38.016 138.402-8.907 14.272c-37.799 59.686-57.568 128.674-57.568 199.39 0 206.308 169.010 374.555 376.689 374.555 100.578 0 195.076-39.142 266.334-109.858 71.036-70.932 110.135-165.004 110.135-265.128-0.218-206.959-169.225-374.989-376.687-374.989zM748.774 386.155c-11.298 5.623-66.91 32.87-77.338 36.762-10.428 3.678-18.031 5.623-25.417-5.623-7.603-11.243-29.325-36.762-35.844-44.113-6.515-7.569-13.248-8.435-24.546-2.812s-47.791 17.515-91.021 56.009c-33.673 29.845-56.265 66.825-63.002 78.071-6.516 11.243-0.649 17.297 4.996 22.921 4.996 4.975 11.298 13.193 16.947 19.68s7.603 11.245 11.294 18.814c3.695 7.569 1.958 14.057-0.866 19.679s-25.417 61.201-34.978 83.692c-9.123 22.058-18.464 19.030-25.415 19.247-6.517 0.433-14.121 0.433-21.724 0.433s-19.768-2.811-30.196-14.057c-10.427-11.245-39.537-38.494-39.537-94.071 0-55.579 40.623-108.994 46.272-116.563s79.727-121.318 193.34-170.193c26.94-11.678 48.009-18.598 64.521-23.787 27.153-8.653 51.703-7.356 71.253-4.544 21.726 3.247 66.91 27.251 76.467 53.632 9.34 26.385 9.34 48.875 6.519 53.632-2.825 4.757-10.428 7.569-21.726 13.193z" />
<glyph unicode="&#xe91c;" glyph-name="rs-yt" d="M515.273 832.083c0.367 0 0.759-0.002 1.178-0.003l4.531-0.014c52.595-0.193 319.164-2.126 391.036-21.448 44.058-11.817 78.754-46.643 90.526-90.85 6.485-24.288 11.004-56.569 14.153-89.769l0.61-6.65c0.495-5.548 0.956-11.11 1.378-16.65l0.491-6.637c4.207-58.503 4.698-113.248 4.757-125.225l0.004-1.617c0-0.132 0-0.35 0-0.35v-0.905c0 0 0-0.218 0-0.35l-0.004-1.617c-0.060-12.429-0.589-70.921-5.248-131.866l-0.525-6.656-0.559-6.665c-3.17-36.646-7.923-73.033-15.057-99.746-11.772-44.207-46.468-79.040-90.526-90.85-74.27-19.972-356.429-21.372-395.567-21.47l-3.012-0.009c-0.247 0-0.465 0-0.653 0h-1.229c0 0-0.282 0-0.469 0l-3.665 0.009c-19.78 0.047-101.626 0.431-187.339 3.375l-10.959 0.388c-1.828 0.068-3.657 0.137-5.487 0.205l-10.971 0.435-10.946 0.465c-71.008 3.115-138.711 8.226-169.855 16.602-44.059 11.81-78.753 46.643-90.529 90.85-7.134 26.714-11.89 63.1-15.060 99.746l-0.559 6.665-0.525 6.656c-4.494 58.731-5.146 115.179-5.241 130.33l-0.011 2.167c-0.001 0.196-0.001 0.375-0.002 0.542v2.492c0.001 0.166 0.001 0.346 0.002 0.538l0.011 2.172c0.086 13.722 0.629 61.312 4.069 113.797l0.445 6.584c0.077 1.101 0.155 2.203 0.234 3.307l0.493 6.637c0.424 5.541 0.882 11.102 1.377 16.65l0.612 6.65c3.15 33.2 7.67 65.481 14.156 89.769 11.775 44.207 46.47 79.033 90.529 90.85 31.144 8.373 98.847 13.481 169.855 16.596l10.946 0.464 10.971 0.433c1.829 0.070 3.658 0.138 5.487 0.206l10.959 0.39c80.242 2.755 157.097 3.264 182.808 3.359l4.531 0.014c0.422 0.001 0.815 0.002 1.178 0.003h6.673zM409.539 626.567v-308.299l266.032 154.142-266.032 154.157z" />
<glyph unicode="&#xe91d;" glyph-name="pin-ubi" d="M465.041-2.62l46.959-44.506 46.959 44.506-46.959 49.549-46.959-49.549zM512 46.929c0 0 307.2 291.14 307.2 512 0 169.662-137.536 307.2-307.2 307.2-169.661 0-307.2-137.538-307.2-307.2 0-220.86 307.2-512 307.2-512zM558.959-2.62c-0.013-0.013 0 0-46.959 49.549-46.959-49.549-46.946-49.562-46.959-49.549l-0.051 0.047-0.077 0.077-0.243 0.226-0.811 0.777-2.884 2.786c-2.462 2.394-5.986 5.85-10.423 10.283-8.866 8.862-21.397 21.641-36.373 37.623-29.876 31.893-69.853 76.949-109.999 129.429-39.99 52.275-81.169 113.237-112.596 176.913-31.058 62.925-55.050 133.393-55.050 203.388 0 207.365 168.102 375.467 375.466 375.467s375.467-168.102 375.467-375.467c0-69.995-23.991-140.463-55.049-203.388-31.428-63.676-72.606-124.638-112.597-176.913-40.145-52.48-80.124-97.536-109.999-129.429-14.976-15.983-27.503-28.762-36.373-37.623-4.433-4.433-7.962-7.889-10.423-10.283l-2.884-2.786-0.811-0.777-0.239-0.226-0.132-0.124zM512 473.596c-47.13 0-85.333 38.204-85.333 85.333s38.204 85.333 85.333 85.333 85.333-38.205 85.333-85.333c0-47.13-38.204-85.333-85.333-85.333zM358.4 558.929c0-84.83 68.77-153.6 153.6-153.6s153.6 68.77 153.6 153.6c0 84.831-68.77 153.6-153.6 153.6s-153.6-68.769-153.6-153.6z" />
<glyph unicode="&#xe91e;" glyph-name="arw-colapse2x" d="M512 896c-247.424 0-448-200.576-448-448s200.576-448 448-448c247.424 0 448 200.576 448 448s-200.576 448-448 448zM512 960c282.769 0 512-229.23 512-512s-229.231-512-512-512c-282.77 0-512 229.231-512 512s229.23 512 512 512zM746.381 325.133l40.107 40.107-274.773 274.775-274.205-274.489 40.107-40.107 234.098 234.098 234.667-234.384z" />
<glyph unicode="&#xe91f;" glyph-name="arw-extend2x" d="M512 0c247.424 0 448 200.576 448 448s-200.576 448-448 448c-247.424 0-448-200.576-448-448s200.576-448 448-448zM512-64c-282.77 0-512 229.231-512 512s229.23 512 512 512c282.769 0 512-229.23 512-512s-229.231-512-512-512zM277.619 570.865l-40.107-40.105 274.773-274.773 274.206 274.487-40.107 40.106-234.099-234.099-234.667 234.383z" />
<glyph unicode="&#xe920;" glyph-name="ic-flash2x" d="M354.024 840.907c12.182 32.899 43.901 55.093 79.244 55.093h185.173c58.726 0 99.797-58.614 79.275-114.192l-0.085-0.233-73.894-196.616h97.105c74.739 0 112.367-88.725 61.858-142.66l-0.064-0.073-407.246-432.828c-19.63-21.355-48.139-20.659-66.753-9.186-18.427 11.358-31.942 36.194-22.182 63.305l0.195 0.542 114.471 305.007h-101.828c-58.728 0-99.8 58.615-79.279 114.193l0.071 0.192 133.94 357.455zM433.822 810.667l-133.495-356.267h162.381c13.995 0 27.098-6.865 35.072-18.368 7.97-11.503 9.788-26.189 4.873-39.292l-79.636-212.194 296.455 315.081h-157.35c-14.003 0-27.11 6.869-35.081 18.377-7.97 11.511-9.788 26.196-4.86 39.301l95.223 253.363h-183.582zM312.378 66.944c0.17 0.188 0.341 0.375 0.514 0.559l-0.514-0.559z" />
<glyph unicode="&#xe921;" glyph-name="ic-user2x" d="M895.59 21.333h-82.052v177.54c0 47.134-36.514 85.235-80.819 85.235h-441.437c-44.718 0-80.82-38.494-80.82-85.235v-177.54h-82.461v177.54c0 90.342 73.436 163.793 163.282 163.793h441.847c89.847 0 162.871-73.451 162.871-163.793v-177.54h-0.41zM511.804 448.397c-117.443 0-213.137 95.603-213.137 213.332s95.694 212.938 213.137 212.938c117.44 0 213.53-95.605 213.53-213.333s-95.693-213.333-213.53-213.333v0.397zM511.804 795.654c-73.946 0-134.051-60.049-134.051-134.321s60.106-134.319 134.051-134.319c73.946 0 134.443 60.047 134.443 134.319s-60.105 134.321-134.443 134.321z" />
<glyph unicode="&#xe922;" glyph-name="direcciones2x" d="M984.294 493.862l-425.762 425.569c-25.655 25.647-66.974 25.647-92.194 0l-425.761-425.569c-25.659-25.647-25.659-66.944 0-92.156l425.326-425.139c25.655-25.647 66.974-25.647 92.194 0l425.327 425.139c25.655 25.647 25.655 66.94 0 92.156h0.87zM588.54 371.277l-61.321 61.291 67.844 67.814h-97.417c-23.919 0-43.486-19.563-43.486-43.469v-269.082h-86.98v269.082c0 71.723 58.711 130.408 130.466 130.408h97.417l-67.844 67.813 61.321 61.292 172.655-172.576-172.655-173.009v0.435z" />
<glyph unicode="&#xe923;" glyph-name="plus-btnn2x" d="M512-64c282.769 0 512 229.231 512 512s-229.231 512-512 512c-282.77 0-512-229.23-512-512s229.23-512 512-512zM548.582 155.43h-87.774v241.37h-241.358v87.77h241.358v256.002h87.774v-256.002h256.013v-87.77h-256.013v-241.37z" />
<glyph unicode="&#xe924;" glyph-name="opciones-menu2x" d="M512 896c247.424 0 448-200.576 448-448s-200.576-448-448-448c-247.424 0-448 200.576-448 448s200.576 448 448 448zM512 960c-282.77 0-512-229.23-512-512s229.23-512 512-512c282.769 0 512 229.231 512 512s-229.231 512-512 512zM586.667 682.667c0-41.237-33.429-74.667-74.667-74.667s-74.667 33.429-74.667 74.667c0 41.237 33.429 74.667 74.667 74.667s74.667-33.429 74.667-74.667zM586.667 448c0-41.237-33.429-74.667-74.667-74.667s-74.667 33.429-74.667 74.667c0 41.237 33.429 74.667 74.667 74.667s74.667-33.429 74.667-74.667zM586.667 213.333c0-41.237-33.429-74.667-74.667-74.667s-74.667 33.429-74.667 74.667c0 41.237 33.429 74.667 74.667 74.667s74.667-33.429 74.667-74.667z" />
<glyph unicode="&#xe925;" glyph-name="ingfo-ic2x" d="M512 875.060c-235.859 0-427.060-191.201-427.060-427.060 0-235.857 191.201-427.059 427.060-427.059 235.857 0 427.059 191.202 427.059 427.059 0 235.859-191.202 427.060-427.059 427.060zM0 448c0 282.77 229.23 512 512 512s512-229.23 512-512c0-282.769-229.231-512-512-512s-512 229.231-512 512zM467.166 162.513v377.51h94.379v-377.51h-94.379zM462.46 705.193h99.098v-99.097h-99.098v99.097z" />
<glyph unicode="&#xe926;" glyph-name="search-ic" d="M144.448 532.092c0 146.668 118.897 265.565 265.563 265.565s265.564-118.897 265.564-265.565c0-146.667-118.899-265.562-265.564-265.562-146.667 0-265.563 118.895-265.563 265.562zM410.011 882.99c-193.795 0-350.897-157.102-350.897-350.898 0-193.792 157.102-350.895 350.897-350.895 82.409 0 158.181 28.407 218.059 75.964l263.855-263.851 60.339 60.339-264.277 264.273c45.722 59.255 72.922 133.538 72.922 214.17 0 193.796-157.103 350.898-350.897 350.898z" />
<glyph unicode="&#xe927;" glyph-name="plug" d="M571.375 816.325l100.361 100.36c14.75 14.748 34.172 22.086 53.453 22.086 19.354 0 38.775-7.41 53.453-22.086 14.746-14.748 22.084-34.173 22.084-53.452s-7.407-38.706-22.084-53.381l-100.361-100.503 94.963-94.963 100.361 100.36c14.75 14.748 34.172 22.086 53.453 22.086 19.354 0 38.707-7.338 53.453-22.086s22.157-34.173 22.157-53.524c0-19.351-7.411-38.778-22.084-53.452l-100.361-100.359 70.647-70.647c17.195-17.195 25.826-39.859 25.826-62.447 0-22.519-8.636-45.107-25.826-62.302-17.050-17.267-39.714-25.826-62.302-25.826-19.281 0-38.562 6.259-54.46 18.705l-136.188-136.188c-63.957-63.957-148.275-95.97-232.593-95.97-60.071 0-120.143 16.26-172.805 48.704l-156.116-156.113c-10.792-10.795-28.274-10.795-39.065 0-10.791 10.79-10.791 28.271 0 39.061l150.432 150.434c-5.108 4.459-10.072 9.135-14.892 13.956s-9.496 9.856-13.957 14.891l-150.432-150.43c-10.792-10.79-28.274-10.79-39.065 0s-10.791 28.275 0 39.066l156.116 156.113c-32.518 52.736-48.704 112.806-48.704 172.809 0.144 84.314 32.015 168.631 95.971 232.591l136.259 136.259c-12.518 15.971-18.776 35.181-18.776 54.388 0 22.591 8.633 45.251 25.827 62.374l1.871 1.727c16.906 16.043 38.778 24.101 60.578 24.101 22.515 0 45.107-8.633 62.302-25.827l70.507-70.512zM639.36 748.411l100.361 100.36c3.959 3.885 5.901 9.137 5.901 14.388 0 5.18-2.014 10.432-5.901 14.388-3.955 3.957-9.207 5.972-14.387 5.972s-10.505-2.015-14.387-5.9l-100.361-100.36 28.847-28.849h-0.073zM407.709 730.642l-135.828-135.828c-53.237-53.237-79.927-123.454-79.927-193.53 0.144-70.144 26.762-140.361 79.927-193.527 53.165-53.171 123.309-79.782 193.531-79.782 70.144 0 140.288 26.543 193.527 79.782l135.757 135.757-386.988 387.128zM518.498 492.156c14.677 3.955 29.858-4.821 33.741-19.567 3.959-14.677-4.817-29.858-19.567-33.741l-51.008-13.67 41.297-41.293c10.79-10.795 10.79-28.275 0-39.066-3.887-3.887-8.704-6.404-13.67-7.484l-188.703-50.577c-14.676-3.955-29.856 4.821-33.74 19.571-3.957 14.677 4.82 29.854 19.568 33.741l143.743 38.485-41.297 41.297c-3.309 3.383-5.827 7.552-7.122 12.446-3.956 14.677 4.82 29.858 19.569 33.741l97.19 26.116zM812.531 575.393l28.851-28.849 100.356 100.36c3.959 3.957 5.901 9.209 5.901 14.388s-2.014 10.504-5.901 14.388c-3.955 3.957-9.135 5.899-14.387 5.899-5.18 0-10.505-2.014-14.387-5.899l-100.361-100.359-0.073 0.072zM911.957 397.841l-450.138 450.080c-6.332 6.403-14.895 9.64-23.309 9.64-8.060 0-16.044-2.878-22.302-8.489l-1.007-1.079c-6.403-6.403-9.641-14.892-9.641-23.381 0-8.057 2.878-16.043 8.489-22.301l451.226-451.151c6.327-6.327 14.891-9.638 23.309-9.638 8.486 0 16.977 3.238 23.309 9.638 6.473 6.332 9.638 14.822 9.638 23.309 0 8.491-3.238 16.981-9.638 23.309l0.064 0.064z" />
<glyph unicode="&#xe928;" glyph-name="mtmto" d="M113.767 898.387l-55.040-55.040c-10.41-10.41-12.374-26.58-4.759-39.179l82.773-136.96c5.795-9.589 16.183-15.448 27.387-15.448h55.467c8.444 0 16.546 3.337 22.54 9.285l3.219 3.194 117.193-116.849 19.068-25.423-173.653-173.653c-3.12-2.359-7.701-5.99-12.044-10.765l-93.668-93.67c-29.137-29.133-29.137-76.275 0-105.412l101.973-101.973c29.137-29.137 76.278-29.137 105.415 0l223.607 223.607 17.331-23.36c0.576-0.777 1.19-1.527 1.835-2.249l178.291-199.62c50.342-56.905 137.587-62.647 194.825-12.1 3.055 2.509 5.76 5.154 8.307 8.128 53.175 51.951 54.349 136.828 3.755 190.822-3.844 4.429-8.004 7.885-10.197 9.707l-147.648 131.477c-0.631 0.563-1.289 1.105-1.967 1.617l-22.519 17.050c21.653 5.67 42.654 14.276 62.4 25.779 114.202 66.419 156.996 208.643 101.077 325.663-1.178 6.041-4.109 11.808-8.794 16.484-12.501 12.48-32.747 12.473-45.235-0.017l-124.843-125.229-40.077 9.351-9.357 40.107 125.235 125.236c7.215 7.216 10.556 17.44 8.994 27.525s-7.838 18.819-16.9 23.514c-53.858 27.908-115.925 35.193-174.925 21.053l-0.171-0.042c-129.361-31.756-210.475-157.68-188.86-286.844l-6.545-6.544-29.246 22.063-113.765 113.079 2.929 2.906c6.055 6.008 9.46 14.185 9.46 22.715v55.040c0 11.277-5.935 21.721-15.623 27.492l-138.24 82.347c-12.583 7.495-28.648 5.492-39.004-4.864zM679.223 437.764c-2.876 1.169-5.918 1.924-9.037 2.219-9.485 0.905-16.538 1.596-22.929 3.115-10.833 2.581-22.225-0.657-30.084-8.55l-2.304-2.313-350.487-350.485c-4.143-4.147-10.762-4.147-14.905 0l-101.973 101.969c-4.143 4.147-4.143 10.765 0 14.908l94.293 94.293c0.502 0.503 0.987 1.020 1.455 1.553 0.123 0.141 0.448 0.486 1.228 1.143 0.877 0.734 1.886 1.502 3.703 2.863 1.211 0.909 2.356 1.903 3.427 2.974l249.6 249.6c7.885 7.887 11.098 19.31 8.478 30.15-24.448 101.076 37.184 202.785 138.146 227.619 29.056 6.95 58.995 6.951 87.454 0.259l-102.694-102.693c-7.821-7.821-11.046-19.127-8.533-29.899l17.92-76.8c2.769-11.862 12.028-21.124 23.893-23.892l76.8-17.92c10.786-2.517 22.11 0.724 29.931 8.57l101.508 101.824c18.594-78.263-15.189-162.885-88.653-205.607-32.337-18.842-69.312-27.285-106.236-24.9zM649.971 376.785c2.317-0.384 4.638-0.738 6.963-1.054l81.199-61.47 147.102-130.991c0.149-0.132 0.299-0.265 0.452-0.397 0.111-0.098 0.226-0.192 0.341-0.29 1.374-1.143 2.095-1.749 2.697-2.3 0.311-0.286 0.469-0.444 0.512-0.491 0.422-0.508 0.862-0.998 1.318-1.481 27.691-29.175 26.581-75.046-2.227-102.387-1.062-1.003-2.048-2.082-2.961-3.221l-0.201-0.235-0.055-0.060-0.055-0.055-0.239-0.196c-0.188-0.149-0.371-0.303-0.555-0.457-0.26-0.218-0.516-0.439-0.772-0.666-30.639-27.371-77.743-24.448-104.887 6.281l-177.493 198.724-21.973 29.615 70.835 71.13zM141.413 835.523l101.222-60.296v-23.527l-36.222-35.941h-24.234l-60.471 100.058 19.706 19.706z" />
<glyph unicode="&#xe929;" glyph-name="engranes" d="M923.691 483.277c0-7.253-0.427-14.507-0.853-21.333h-0.427l44.373-34.56c23.467-17.92 32.427-49.493 21.76-78.080-14.933-40.533-36.693-78.080-64.427-111.36-19.2-23.467-50.773-31.147-78.507-20.053l-52.053 21.333c-11.947-8.107-23.893-15.36-36.693-21.333l-7.68-55.467c-3.84-29.44-25.6-52.48-54.187-57.6-21.76-3.84-44.373-5.973-66.56-5.973s-44.8 2.133-66.56 5.973c-10.923 2.099-20.186 7.091-28.612 13.76-16.597-12.335-38.281-15.317-58.001-7.36l-35.413 14.507c-6.827-4.267-14.081-8.533-21.335-12.373l-5.12-37.973c-3.413-25.6-22.613-46.080-47.36-50.347-17.067-2.987-34.987-4.693-52.053-4.693s-34.56 1.28-51.627 4.267c-25.173 4.693-44.373 24.747-47.787 50.347l-5.12 37.973c-7.253 3.84-14.507 7.68-21.333 12.373l-35.413-14.507c-23.893-9.813-51.2-2.987-68.267 17.493-21.76 26.453-38.827 56.32-50.774 88.747-8.533 23.893-0.853 50.347 19.627 66.133l30.293 23.467v24.747l-30.293 23.467c-20.48 15.787-28.16 42.24-19.627 66.133 11.52 32.427 29.014 62.293 50.774 88.747 16.64 20.48 44.373 27.306 68.267 17.493l35.413-14.507c6.827 4.267 14.080 8.533 21.333 12.373l5.12 37.973c3.413 25.6 22.613 46.080 47.787 50.347 2.133 0.853 4.693 0.853 7.253 0.853h-1.707v0.427c14.933 41.387 37.12 79.787 65.28 113.92 19.2 23.467 51.2 31.147 78.507 20.053l52.055-21.333c11.52 8.107 23.893 14.933 36.693 21.333l7.68 55.467c3.84 29.44 25.6 52.48 54.187 57.6 43.52 7.68 90.027 7.68 133.547 0 28.16-5.12 50.347-28.16 54.187-57.6l7.68-55.467c12.8-6.4 25.173-13.227 36.693-21.333l51.627 21.333c27.733 11.52 59.307 3.413 78.507-20.053 28.16-34.133 50.347-72.533 65.28-113.92 9.813-26.88 0.853-57.6-22.613-75.52l-44.373-34.56c0.853-7.253 0.853-14.080 0.853-21.333zM543.957 128.717c-0.61-0.73-1.229-1.442-1.865-2.138 0.661 0.687 1.284 1.395 1.865 2.138zM480.811 318.758c-0.013 7.625-0.862 15.241-1.707 22.438-1.707 11.093 2.987 22.613 11.947 29.44l41.387 32c-8.96 22.613-21.333 43.947-36.693 63.147l-48.64-20.053c-10.24-4.267-22.615-2.56-31.575 4.267-11.947 9.387-25.173 17.067-39.253 22.613-10.667 4.267-17.92 13.653-19.627 25.173l-7.253 52.053c-23.893 3.84-49.067 3.84-72.96 0l-7.253-52.053c-1.707-11.093-8.96-20.907-19.627-25.173-14.080-5.547-27.307-13.227-39.253-22.613-9.387-6.827-21.333-8.533-32-4.267l-48.64 20.053c-15.787-19.2-27.733-40.107-36.693-63.147l41.387-32c8.96-6.827 13.653-18.347 11.947-29.44-1.28-7.253-1.707-14.933-1.707-22.613s0.853-15.36 1.707-22.613c1.707-11.093-2.987-22.613-11.947-29.44l-41.387-32c8.96-23.040 21.333-43.947 36.693-63.147l48.64 20.053c10.667 4.267 23.040 2.987 32-4.267 11.947-9.387 25.173-17.067 39.253-22.613 10.667-4.267 17.92-13.653 19.627-25.173l7.253-52.053c23.893-3.84 49.067-3.84 72.96 0l7.253 52.053c1.707 11.093 8.96 20.907 19.627 25.173 14.080 5.547 27.307 13.227 39.253 22.613 8.96 6.827 20.908 8.533 31.575 4.267l48.64-20.053c15.787 19.2 27.733 40.107 36.693 63.147l-41.387 32c-8.96 7.253-13.653 18.347-11.947 29.867 1.263 7.172 1.694 14.767 1.707 22.362zM596.169 414.263c0.081-0.747 0.162-1.493 0.269-2.24v0.427c9.813-4.693 20.907-7.253 32.427-7.253 43.093 0 78.080 34.987 78.080 78.080s-34.987 78.080-78.080 78.080c-38.4 0-69.973-27.733-76.8-63.573 17.92-23.893 32.427-49.067 42.667-76.8 0.96-2.24 1.199-4.48 1.438-6.72zM628.864 340.77c-20.053 0-38.827 4.267-56.32 11.947l-26.88-20.48v-24.747l30.293-23.467c20.907-16.213 28.587-43.52 19.2-68.267-5.547-15.36-12.8-30.293-20.907-44.373 39.68-11.947 75.52-8.96 111.36-2.56l11.947 76.373c1.707 11.093 8.96 20.907 19.627 25.173 19.627 7.68 37.547 18.347 54.187 31.147 8.96 6.827 20.907 8.533 31.573 4.267l68.267-28.16c1.707-0.853 3.84 0.427 5.12 1.707 23.040 27.733 41.387 58.88 53.76 92.587 0.853 2.133-0.853 5.547-0.853 5.547l-58.453 45.227c-8.96 6.827-13.653 18.347-11.947 29.44 1.28 10.24 2.133 20.48 2.133 31.147s-0.853 21.333-2.133 31.573c-1.707 11.093 2.987 22.613 11.947 29.44l58.453 45.227c-11.093 37.547-29.44 69.547-52.907 98.133-1.28 1.707-5.12 1.707-5.12 1.707l-68.267-28.16c-10.667-4.267-23.040-2.987-32 4.267-16.64 12.8-34.56 23.040-54.187 31.147-10.667 4.267-17.92 13.653-19.627 25.173l-9.813 72.96c-40.533 12.373-77.227 9.387-113.493 2.987l-11.947-76.373c-1.707-11.093-8.96-20.907-19.627-25.173-19.627-7.68-37.973-18.347-54.187-31.147-9.387-6.827-21.333-8.533-32-4.267l-68.268 28.16c-1.707 0.853-3.84 0-5.12-1.707-17.92-21.76-32-46.080-43.52-71.68 3.063-0.279 6.081-0.466 9.068-0.652 6.166-0.383 12.202-0.759 18.238-1.908 24.747-4.267 43.947-24.747 47.36-50.347l5.12-37.973c7.253-3.84 14.508-7.68 21.335-12.373l35.413 14.507c6.4 2.987 13.227 4.267 20.053 4.267 20.053 54.613 71.68 93.866 133.12 93.866 78.507 0 142.080-63.573 142.080-142.080s-63.573-142.080-142.080-142.080zM198.771 318.583c0 64 51.627 115.627 115.2 115.627s115.2-52.053 115.2-115.627c0-63.573-51.627-115.2-115.2-115.2s-115.2 51.2-115.2 115.2zM262.771 318.583c0-28.16 23.040-51.2 51.2-51.2s51.2 22.613 51.2 51.2c0 28.587-23.040 51.627-51.2 51.627s-51.2-23.467-51.2-51.627z" />
<glyph unicode="&#xe92a;" glyph-name="llanta" d="M512 921.6c-260.267 0-473.6-213.333-473.6-473.6s213.333-473.6 473.6-473.6 473.6 213.333 473.6 473.6-213.333 473.6-473.6 473.6zM512 38.4c-226.133 0-409.6 183.467-409.6 409.6s183.467 409.6 409.6 409.6 409.6-183.467 409.6-409.6-183.467-409.6-409.6-409.6zM512 750.933c-166.4 0-302.933-136.533-302.933-302.933s136.533-302.933 302.933-302.933 302.933 136.533 302.933 302.933-136.533 302.933-302.933 302.933zM546.133 682.667c81.067-12.8 149.333-64 183.467-132.267l-136.533-42.667c-12.8 17.067-29.867 25.6-46.933 34.133v145.067zM477.867 682.667v-145.067c-17.067-8.533-34.133-17.067-46.933-34.133l-136.533 42.667c34.133 72.533 102.4 119.467 183.467 132.267zM273.067 448c0 12.8 0 29.867 0 42.667l136.533-42.667c0-21.333 8.533-38.4 17.067-55.467l-85.333-115.2c-46.933 42.667-72.533 102.4-72.533 170.667zM512 209.067c-42.667 0-81.067 8.533-115.2 29.867l85.333 115.2c8.533 0 17.067-4.267 29.867-4.267s21.333 0 29.867 4.267l85.333-115.2c-34.133-17.067-72.533-29.867-115.2-29.867zM678.4 277.333l-85.333 115.2c12.8 17.067 17.067 34.133 17.067 55.467l136.533 42.667c0-12.8 0-29.867 0-42.667 0-68.267-29.867-128-72.533-170.667z" />
<glyph unicode="&#xe92b;" glyph-name="mail-ic" d="M184.214 691.375c5.045 1.749 10.463 2.699 16.104 2.699h634.881c5.505 0 10.797-0.905 15.737-2.574l-305.848-214.833c-16.9-12.005-39.363-12.005-56.263 0l-304.611 214.707zM151.166 634.49l299.762-211.291c39.592-28.086 92.43-28.094 132.035-0.016l301.388 211.701v-399.56c0-27.148-22.008-49.152-49.152-49.152h-634.881c-27.146 0-49.152 22.004-49.152 49.152v399.166zM200.318 759.61c-63.341 0-114.688-51.348-114.688-114.688v-409.599c0-63.341 51.347-114.688 114.688-114.688h634.881c63.341 0 114.688 51.347 114.688 114.688v409.599c0 63.34-51.347 114.688-114.688 114.688h-634.881z" />
<glyph unicode="&#xe92c;" glyph-name="icon-ic-black-appearance" d="M929.792 636.416c-14.336 0-25.6-11.264-25.6-25.6v-65.536c-4.096 9.216-13.312 15.36-23.552 15.36h-31.744c-1.024 1.024-3.072 2.048-5.12 3.072l-70.656 109.568c-13.312 20.48-36.864 33.792-61.44 33.792h-276.48c-22.528 0-43.008-11.264-56.32-28.672l-83.968-115.712h-153.6c-39.936 0-71.68-32.768-71.68-71.68v-108.544c0-25.6 15.36-47.104 37.888-56.32-1.024-7.168-2.048-13.312-2.048-20.48 0-63.488 51.2-114.688 114.688-114.688s114.688 51.2 114.688 114.688c0 5.12-1.024 11.264-1.024 16.384h262.144c-2.048-7.168-2.048-12.288-2.048-18.432 0-63.488 51.2-114.688 114.688-114.688s114.688 51.2 114.688 114.688-51.2 114.688-114.688 114.688c-37.888 0-71.68-18.432-92.16-47.104h-305.152c-20.48 28.672-54.272 47.104-92.16 47.104s-71.68-18.432-92.16-47.104c-4.096 1.024-7.168 5.12-7.168 9.216v109.568c0 11.264 9.216 20.48 20.48 20.48h166.912c8.192 0 16.384 4.096 20.48 10.24l92.16 126.976c3.072 5.12 9.216 7.168 15.36 7.168h136.192v-114.688c0-14.336 11.264-25.6 25.6-25.6h218.112c4.096-4.096 10.24-6.144 16.384-6.144h23.552v-163.84c0-14.336 11.264-25.6 25.6-25.6s25.6 11.264 25.6 25.6v66.56c4.096-9.216 13.312-15.36 23.552-15.36 14.336 0 25.6 11.264 25.6 25.6v189.44c0 14.336-12.288 25.6-25.6 25.6zM707.584 367.104c34.816 0 63.488-28.672 63.488-63.488s-28.672-63.488-63.488-63.488-62.464 28.672-62.464 63.488 27.648 63.488 62.464 63.488zM219.136 367.104c34.816 0 63.488-28.672 63.488-63.488s-28.672-63.488-63.488-63.488-63.488 28.672-63.488 63.488 28.672 63.488 63.488 63.488zM622.592 655.872h89.088c7.168 0 14.336-4.096 18.432-10.24l51.2-78.848h-158.72v89.088z" />
<glyph unicode="&#xe92d;" glyph-name="icon-ic-carbono" d="M909.312 535.040c-8.192 8.192-20.48 10.24-30.72 5.12-49.152-25.6-101.376-25.6-157.696 0-15.36 9.216-160.768 92.16-259.072 92.16-89.088 0-141.312-65.536-158.72-93.184-115.712-15.36-184.32-93.184-188.416-97.28-9.216-10.24-8.192-26.624 3.072-35.84 5.12-4.096 11.264-6.144 16.384-6.144 7.168 0 14.336 3.072 19.456 9.216 1.024 1.024 73.728 82.944 190.464 82.944 101.376 0 166.912-28.672 219.136-52.224 12.288-5.12 23.552-10.24 34.816-15.36 27.648-11.264 60.416-14.336 95.232-10.24 14.336 2.048 23.552 14.336 22.528 28.672-2.048 14.336-14.336 23.552-28.672 22.528-18.432-2.048-46.080-3.072-70.656 7.168-10.24 4.096-21.504 9.216-32.768 14.336-49.152 21.504-115.712 51.2-212.992 55.296 20.48 19.456 50.176 38.912 91.136 38.912 88.064 0 232.448-84.992 234.496-86.016 1.024 0 2.048-1.024 2.048-1.024 44.032-20.48 87.040-27.648 129.024-22.528-78.848-102.4-169.984-153.6-275.456-156.672 0 0-1.024 0-1.024 0-111.616 0-184.32 46.080-229.376 144.384-6.144 13.312-20.48 18.432-33.792 13.312-13.312-6.144-18.432-20.48-13.312-33.792 52.224-116.736 145.408-175.104 276.48-175.104 0 0 1.024 0 1.024 0 144.384 4.096 262.144 82.944 359.424 239.616 6.144 10.24 5.12 22.528-2.048 31.744z" />
<glyph unicode="&#xe92e;" glyph-name="icon-ic-carga" d="M93.184 510.464v-218.112h96.256c0-1.024 0-2.048 0-3.072 0-52.224 41.984-94.208 94.208-94.208s94.208 41.984 94.208 94.208c0 1.024 0 2.048 0 3.072h46.080v363.52h-184.32c-81.92 0-146.432-64.512-146.432-145.408zM282.624 246.272c-23.552 0-43.008 19.456-43.008 43.008s19.456 43.008 43.008 43.008 43.008-19.456 43.008-43.008-19.456-43.008-43.008-43.008zM371.712 344.576h-12.288c-17.408 23.552-45.056 38.912-76.8 38.912s-59.392-15.36-76.8-38.912h-62.464v165.888c0 52.224 41.984 94.208 94.208 94.208h133.12v-260.096zM930.816 334.336h-49.152c-17.408 23.552-45.056 38.912-76.8 38.912-33.792 0-64.512-18.432-80.896-46.080l-29.696 4.096c-1.024 51.2-43.008 92.16-94.208 92.16-47.104 0-86.016-34.816-93.184-79.872h-41.984v-51.2h49.152c14.336-33.792 48.128-56.32 86.016-56.32 33.792 0 64.512 18.432 80.896 46.080l29.696-4.096c1.024-51.2 43.008-92.16 94.208-92.16 52.224 0 94.208 41.984 94.208 94.208 0 1.024 0 2.048 0 3.072h31.744v51.2zM600.064 287.232c-23.552 0-43.008 19.456-43.008 43.008s19.456 43.008 43.008 43.008 43.008-19.456 43.008-43.008-19.456-43.008-43.008-43.008zM804.864 236.032c-23.552 0-43.008 19.456-43.008 43.008s19.456 43.008 43.008 43.008 43.008-19.456 43.008-43.008-19.456-43.008-43.008-43.008zM584.704 474.624h32.768v91.136h71.68l-89.088 145.408-89.088-145.408h73.728z" />
<glyph unicode="&#xe92f;" glyph-name="icon-ic-carga-vans" d="M845.824 690.688h-373.76c-26.624 0-53.248-11.264-72.704-30.72l-166.912-168.96c-8.192-8.192-17.408-14.336-28.672-19.456l-53.248-21.504c-25.6-10.24-41.984-34.816-41.984-62.464v-68.608c0-14.336 11.264-25.6 25.6-25.6h70.656c3.072-49.152 44.032-88.064 94.208-88.064s91.136 38.912 94.208 88.064h262.144c3.072-49.152 44.032-88.064 94.208-88.064 52.224 0 94.208 41.984 94.208 94.208s-41.984 94.208-94.208 94.208c-35.84 0-67.584-20.48-83.968-50.176 0 0-1.024 0-1.024 0h-281.6c-16.384 29.696-47.104 50.176-83.968 50.176-35.84 0-67.584-20.48-83.968-50.176h-56.32v43.008c0 7.168 4.096 12.288 10.24 15.36l53.248 21.504c17.408 7.168 32.768 17.408 46.080 30.72l167.936 169.984c9.216 9.216 22.528 15.36 35.84 15.36h373.76c10.24 0 18.432-8.192 18.432-18.432v-302.080c0-14.336 11.264-25.6 25.6-25.6s25.6 11.264 25.6 25.6v302.080c0 38.912-30.72 69.632-69.632 69.632zM749.568 343.552c23.552 0 43.008-19.456 43.008-43.008s-19.456-43.008-43.008-43.008-43.008 18.432-43.008 41.984 19.456 44.032 43.008 44.032zM299.008 343.552c23.552 0 43.008-19.456 43.008-43.008s-19.456-43.008-43.008-43.008-43.008 18.432-43.008 41.984 19.456 44.032 43.008 44.032z" />
<glyph unicode="&#xe930;" glyph-name="icon-ic-combustible" d="M869.376 288.256l-43.008 301.056h18.432v53.248l-160.768 117.76-52.224 10.24v-39.936l134.144-140.288h7.168l45.056-308.224c2.048-14.336-3.072-28.672-13.312-38.912l-2.048-2.048c-17.408-17.408-47.104-17.408-64.512 0-8.192 8.192-13.312 20.48-13.312 32.768v129.024c0 36.864-21.504 70.656-55.296 87.040l-69.632 32.768v181.248c0 50.176-40.96 92.16-92.16 92.16h-219.136c-50.176 0-92.16-40.96-92.16-92.16v-567.296h-18.432c-14.336 0-25.6-11.264-25.6-25.6s11.264-25.6 25.6-25.6h453.632c14.336 0 25.6 11.264 25.6 25.6s-11.264 25.6-25.6 25.6h-30.72v329.728l47.104-22.528c15.36-7.168 25.6-23.552 25.6-40.96v-131.072c0-25.6 10.24-50.176 28.672-68.608s44.032-28.672 68.608-28.672 50.176 9.216 68.608 28.672l2.048 2.048c21.504 22.528 31.744 53.248 27.648 82.944zM288.768 744.96h220.16c22.528 0 40.96-18.432 40.96-40.96v-171.008h-301.056v171.008c0 22.528 17.408 40.96 39.936 40.96zM248.832 136.704v345.088h302.080v-346.112h-302.080z" />
<glyph unicode="&#xe931;" glyph-name="icon-ic-comodidad" d="M726.016 266.752l-14.336 20.48v235.52c0 32.768-12.288 63.488-35.84 87.040l-47.104 39.936 4.096 12.288c12.288 36.864 4.096 77.824-22.528 106.496l-13.312 14.336c-18.432 20.48-45.056 31.744-72.704 31.744h-24.576c-27.648 0-54.272-11.264-72.704-31.744l-13.312-14.336c-26.624-28.672-34.816-69.632-22.528-106.496l4.096-12.288-45.056-37.888-2.048-2.048c-23.552-23.552-35.84-54.272-35.84-87.040v-235.52l-14.336-20.48c-24.576-33.792-30.72-76.8-17.408-115.712l23.552-69.632h415.744l23.552 69.632c13.312 38.912 7.168 82.944-17.408 115.712zM450.56 733.696l13.312 14.336c9.216 10.24 21.504 15.36 34.816 15.36h25.6c13.312 0 25.6-6.144 34.816-15.36l13.312-14.336c13.312-15.36 18.432-36.864 11.264-55.296l-9.216-26.624h-125.952l-9.216 26.624c-6.144 18.432-2.048 39.936 11.264 55.296zM384 572.928l30.72 26.624h194.56l30.72-26.624c13.312-13.312 20.48-31.744 20.48-51.2v-225.28l-80.896-25.6c-44.032-14.336-90.112-14.336-134.144 0l-80.896 25.6v225.28c-1.024 19.456 6.144 37.888 19.456 51.2zM695.296 167.424l-12.288-34.816h-342.016l-12.288 34.816c-8.192 23.552-4.096 49.152 10.24 68.608l8.192 12.288 81.92-25.6c26.624-8.192 54.272-13.312 82.944-13.312 27.648 0 55.296 4.096 82.944 13.312l81.92 25.6 8.192-12.288c14.336-19.456 18.432-45.056 10.24-68.608zM425.984 321.024c14.336 0 25.6 11.264 25.6 25.6v171.008c0 14.336-11.264 25.6-25.6 25.6s-25.6-11.264-25.6-25.6v-172.032c0-13.312 11.264-24.576 25.6-24.576zM600.064 321.024c14.336 0 25.6 11.264 25.6 25.6v171.008c0 14.336-11.264 25.6-25.6 25.6s-25.6-11.264-25.6-25.6v-172.032c0-13.312 11.264-24.576 25.6-24.576z" />
<glyph unicode="&#xe932;" glyph-name="icon-ic-confort" d="M788.48 785.92c-35.84 0-64.512-28.672-64.512-64.512v-153.6c-70.656-84.992-114.688-181.248-135.168-290.816l-256 25.6c-27.648 3.072-55.296-9.216-71.68-31.744l-7.168-9.216c-18.432-25.6-21.504-59.392-6.144-86.016l67.584-121.856h333.824c20.48 0 39.936 7.168 56.32 19.456l43.008 33.792c15.36 12.288 26.624 29.696 30.72 49.152l72.704 307.2v259.072c1.024 34.816-28.672 63.488-63.488 63.488zM801.792 469.504l-71.68-301.056c-2.048-8.192-7.168-15.36-13.312-21.504l-43.008-33.792c-7.168-5.12-15.36-8.192-23.552-8.192h-304.128l-53.248 95.232c-5.12 10.24-5.12 21.504 2.048 30.72l7.168 9.216c6.144 8.192 15.36 12.288 25.6 11.264l304.128-30.72 4.096 23.552c17.408 113.664 61.44 210.944 134.144 296.96l6.144 7.168v174.080c0 7.168 6.144 13.312 13.312 13.312s13.312-6.144 13.312-13.312v-252.928zM591.872 632.32c0 115.712-94.208 209.92-209.92 209.92s-209.92-94.208-209.92-209.92 94.208-209.92 209.92-209.92 209.92 94.208 209.92 209.92zM397.312 474.624v103.424c19.456 5.12 33.792 20.48 38.912 38.912h103.424c-7.168-74.752-67.584-135.168-142.336-142.336zM381.952 791.040c81.92 0 150.528-63.488 157.696-143.36h-103.424c-7.168 23.552-28.672 40.96-54.272 40.96s-48.128-17.408-54.272-40.96h-104.448c8.192 80.896 75.776 143.36 158.72 143.36zM223.232 616.96h103.424c5.12-19.456 20.48-33.792 38.912-38.912v-103.424c-74.752 7.168-135.168 67.584-142.336 142.336z" />
<glyph unicode="&#xe933;" glyph-name="icon-ic-copilot" d="M573.44 663.040h-122.88c-14.336 0-25.6-11.264-25.6-25.6v-122.88c0-14.336 11.264-25.6 25.6-25.6h122.88c14.336 0 25.6 11.264 25.6 25.6v122.88c0 14.336-11.264 25.6-25.6 25.6zM547.84 540.16h-71.68v71.68h71.68v-71.68zM317.44 663.040h-122.88c-14.336 0-25.6-11.264-25.6-25.6v-122.88c0-14.336 11.264-25.6 25.6-25.6h122.88c14.336 0 25.6 11.264 25.6 25.6v122.88c0 14.336-11.264 25.6-25.6 25.6zM829.44 663.040h-122.88c-14.336 0-25.6-11.264-25.6-25.6v-122.88c0-14.336 11.264-25.6 25.6-25.6h122.88c14.336 0 25.6 11.264 25.6 25.6v122.88c0 14.336-11.264 25.6-25.6 25.6zM803.84 540.16h-71.68v71.68h71.68v-71.68zM573.44 407.040h-122.88c-14.336 0-25.6-11.264-25.6-25.6v-122.88c0-14.336 11.264-25.6 25.6-25.6h122.88c14.336 0 25.6 11.264 25.6 25.6v122.88c0 14.336-11.264 25.6-25.6 25.6zM547.84 284.16h-71.68v71.68h71.68v-71.68zM317.44 407.040h-122.88c-14.336 0-25.6-11.264-25.6-25.6v-122.88c0-14.336 11.264-25.6 25.6-25.6h122.88c14.336 0 25.6 11.264 25.6 25.6v122.88c0 14.336-11.264 25.6-25.6 25.6zM291.84 284.16h-71.68v71.68h71.68v-71.68zM829.44 407.040h-122.88c-14.336 0-25.6-11.264-25.6-25.6v-122.88c0-14.336 11.264-25.6 25.6-25.6h122.88c14.336 0 25.6 11.264 25.6 25.6v122.88c0 14.336-11.264 25.6-25.6 25.6zM803.84 284.16h-71.68v71.68h71.68v-71.68z" />
<glyph unicode="&#xe934;" glyph-name="icon-ic-desempenio" d="M815.104 658.944c-3.072 30.72-17.408 58.368-41.984 78.848l-71.68 59.392c-23.552 19.456-54.272 28.672-84.992 25.6s-58.368-17.408-78.848-41.984l-56.32-67.584-52.224-3.072-18.432-21.504 38.912-13.312-187.392-228.352c-25.6-31.744-21.504-77.824 10.24-103.424l137.216-113.664c13.312-11.264 29.696-16.384 47.104-16.384 2.048 0 5.12 0 7.168 0 19.456 2.048 36.864 11.264 50.176 26.624l188.416 228.352 20.48-35.84 18.432 21.504-7.168 51.2 56.32 67.584c18.432 24.576 27.648 55.296 24.576 86.016zM749.568 606.72l-275.456-333.824c-4.096-5.12-9.216-7.168-15.36-8.192s-12.288 1.024-16.384 5.12l-137.216 112.64c-9.216 8.192-11.264 22.528-3.072 31.744l275.456 333.824c11.264 13.312 26.624 21.504 44.032 23.552 2.048 0 4.096 0 6.144 0 15.36 0 29.696-5.12 40.96-15.36l71.68-59.392c13.312-11.264 21.504-26.624 23.552-44.032 2.048-16.384-3.072-32.768-14.336-46.080zM359.424 441.856c-18.432-22.528-15.36-55.296 7.168-72.704l52.224-43.008c22.528-18.432 55.296-15.36 72.704 7.168l30.72 37.888-132.096 108.544-30.72-37.888zM588.8 654.848c-15.36 12.288-36.864 10.24-49.152-5.12l-38.912-47.104 119.808-99.328 38.912 47.104c12.288 15.36 10.24 36.864-5.12 49.152l-65.536 55.296zM332.8 250.368c-2.048 14.336-15.36 23.552-29.696 20.48-14.336-2.048-23.552-15.36-20.48-29.696 14.336-83.968 48.128-148.48 98.304-191.488 5.12-4.096 10.24-6.144 16.384-6.144 7.168 0 14.336 3.072 19.456 9.216 9.216 10.24 8.192 26.624-3.072 35.84-40.96 35.84-68.608 90.112-80.896 161.792zM628.736 113.152c-13.312 4.096-54.272 18.432-57.344 107.52 0 14.336-12.288 24.576-26.624 24.576s-25.6-12.288-24.576-26.624c2.048-82.944 33.792-135.168 92.16-154.624 3.072-1.024 5.12-1.024 8.192-1.024 10.24 0 20.48 7.168 24.576 17.408 5.12 13.312-2.048 27.648-16.384 32.768z" />
<glyph unicode="&#xe935;" glyph-name="icon-ic-disenio" d="M964.608 531.968l-63.488 105.472c-18.432 31.744-53.248 51.2-90.112 51.2h-345.088c-24.576 0-47.104-9.216-64.512-25.6l-147.456-137.216h-103.424c-59.392 0-107.52-48.128-107.52-107.52v-111.616h101.376c2.048-54.272 47.104-98.304 102.4-98.304s100.352 44.032 102.4 98.304h356.352c2.048-54.272 47.104-98.304 102.4-98.304 56.32 0 102.4 46.080 102.4 102.4s-46.080 102.4-102.4 102.4c-38.912 0-73.728-22.528-91.136-55.296h-378.88c-17.408 32.768-51.2 55.296-91.136 55.296s-73.728-22.528-91.136-55.296h-61.44v60.416c0 30.72 25.6 56.32 56.32 56.32h123.904l161.792 149.504c8.192 7.168 18.432 11.264 29.696 11.264h346.112c18.432 0 35.84-10.24 46.080-25.6l62.464-104.448c6.144-10.24 9.216-21.504 9.216-33.792v-139.264h51.2v139.264c0 21.504-6.144 43.008-16.384 60.416zM806.912 361.984c28.672 0 51.2-22.528 51.2-51.2s-22.528-51.2-51.2-51.2-51.2 22.528-51.2 51.2 23.552 51.2 51.2 51.2zM246.784 361.984c28.672 0 51.2-22.528 51.2-51.2s-22.528-51.2-51.2-51.2-51.2 22.528-51.2 51.2 22.528 51.2 51.2 51.2z" />
<glyph unicode="&#xe936;" glyph-name="icon-ic-emisiones" d="M552.96 492.032c2.048 0 4.096 0 6.144 1.024l151.552 34.816c21.504 4.096 40.96 17.408 53.248 35.84l4.096 7.168c23.552 35.84 16.384 82.944-16.384 110.592-31.744 25.6-78.848 24.576-108.544-3.072l-40.96-36.864c-10.24-9.216-11.264-25.6-2.048-35.84s25.6-11.264 35.84-2.048l40.96 36.864c11.264 10.24 29.696 11.264 41.984 1.024s15.36-28.672 6.144-41.984l-4.096-8.192c-5.12-7.168-12.288-12.288-21.504-13.312l-151.552-34.816c-13.312-3.072-22.528-16.384-19.456-30.72 2.048-12.288 13.312-20.48 24.576-20.48zM762.88 260.608c-12.288 18.432-31.744 31.744-52.224 34.816l-151.552 34.816c-13.312 3.072-27.648-5.12-30.72-19.456-3.072-13.312 5.12-27.648 19.456-30.72l152.576-34.816c8.192-2.048 15.36-6.144 20.48-13.312l5.12-7.168c9.216-13.312 6.144-31.744-6.144-41.984s-29.696-9.216-41.984 1.024l-40.96 36.864c-10.24 9.216-26.624 9.216-35.84-2.048-9.216-10.24-9.216-26.624 2.048-35.84l40.96-36.864c15.36-14.336 35.84-21.504 56.32-21.504 18.432 0 36.864 6.144 52.224 18.432 32.768 27.648 39.936 74.752 16.384 110.592l-6.144 7.168zM271.36 543.232h-124.928c-14.336 0-25.6-11.264-25.6-25.6s11.264-25.6 25.6-25.6h124.928c14.336 0 25.6 11.264 25.6 25.6s-11.264 25.6-25.6 25.6zM271.36 440.832h-124.928c-14.336 0-25.6-11.264-25.6-25.6s11.264-25.6 25.6-25.6h124.928c14.336 0 25.6 11.264 25.6 25.6s-11.264 25.6-25.6 25.6zM762.88 440.832h-217.088c-14.336 0-25.6-11.264-25.6-25.6s11.264-25.6 25.6-25.6h217.088c14.336 0 25.6 11.264 25.6 25.6s-11.264 25.6-25.6 25.6zM271.36 338.432h-124.928c-14.336 0-25.6-11.264-25.6-25.6s11.264-25.6 25.6-25.6h124.928c14.336 0 25.6 11.264 25.6 25.6s-11.264 25.6-25.6 25.6zM347.136 711.168h89.088v-19.456l-98.304-34.816c-13.312-5.12-20.48-19.456-15.36-32.768 4.096-10.24 13.312-17.408 24.576-17.408 3.072 0 6.144 0 8.192 1.024l114.688 40.96c10.24 4.096 17.408 13.312 17.408 24.576v62.464c0 14.336-11.264 25.6-25.6 25.6h-114.688c-14.336 0-25.6-11.264-25.6-25.6s11.264-24.576 25.6-24.576zM462.848 146.944h-89.088v19.456l98.304 34.816c13.312 5.12 20.48 19.456 15.36 32.768s-19.456 20.48-32.768 15.36l-114.688-40.96c-10.24-4.096-17.408-13.312-17.408-24.576v-62.464c0-14.336 11.264-25.6 25.6-25.6h114.688c14.336 0 25.6 11.264 25.6 25.6s-12.288 25.6-25.6 25.6zM452.608 620.032l-114.688-48.128c-13.312-5.12-19.456-20.48-13.312-33.792 4.096-10.24 13.312-15.36 23.552-15.36 3.072 0 6.144 1.024 10.24 2.048l114.688 48.128c13.312 5.12 19.456 20.48 13.312 33.792-6.144 12.288-20.48 18.432-33.792 13.312zM347.136 438.784c4.096 0 7.168 1.024 11.264 2.048l114.688 53.248c13.312 6.144 18.432 21.504 12.288 33.792-6.144 13.312-21.504 18.432-33.792 12.288l-114.688-53.248c-13.312-6.144-18.432-21.504-12.288-33.792 4.096-9.216 13.312-14.336 22.528-14.336zM324.608 351.744c4.096-9.216 13.312-14.336 23.552-14.336 4.096 0 7.168 1.024 11.264 2.048l114.688 53.248c13.312 6.144 18.432 21.504 12.288 33.792-6.144 13.312-21.504 18.432-33.792 12.288l-114.688-53.248c-14.336-6.144-19.456-21.504-13.312-33.792zM324.608 249.344c4.096-9.216 13.312-14.336 23.552-14.336 4.096 0 7.168 1.024 11.264 2.048l114.688 53.248c13.312 6.144 18.432 21.504 12.288 33.792-6.144 13.312-21.504 18.432-33.792 12.288l-114.688-53.248c-14.336-6.144-19.456-21.504-13.312-33.792zM896 494.080l-47.104 43.008c-10.24 9.216-26.624 8.192-35.84-2.048s-8.192-26.624 2.048-35.84l47.104-43.008c11.264-10.24 18.432-24.576 18.432-40.96 0-15.36-6.144-29.696-18.432-40.96l-47.104-43.008c-10.24-9.216-11.264-25.6-2.048-35.84 5.12-5.12 12.288-8.192 19.456-8.192 6.144 0 12.288 2.048 17.408 6.144l47.104 43.008c22.528 20.48 34.816 49.152 34.816 78.848 0 30.72-13.312 59.392-35.84 78.848z" />
<glyph unicode="&#xe937;" glyph-name="icon-ic-energia" d="M806.912 766.464h-589.824c-34.816 0-62.464-27.648-62.464-62.464v-357.376c0-34.816 27.648-62.464 62.464-62.464h14.336v-155.648h143.36v156.672h271.36v-155.648h143.36v155.648h17.408c34.816 0 62.464 27.648 62.464 62.464v356.352c0 34.816-27.648 62.464-62.464 62.464zM324.608 180.736h-40.96v104.448h40.96v-104.448zM738.304 180.736h-40.96v104.448h40.96v-104.448zM818.176 347.648c0-6.144-5.12-11.264-11.264-11.264h-588.8c-6.144 0-11.264 5.12-11.264 11.264v356.352c0 6.144 5.12 11.264 11.264 11.264h589.824c6.144 0 11.264-5.12 11.264-11.264v-356.352zM576.512 681.472h-63.488l-77.824-155.648h76.8l-37.888-76.8v-75.776l132.096 197.632h-94.208z" />
<glyph unicode="&#xe938;" glyph-name="icon-ic-garantia" d="M304.128 478.72h15.36v-17.408c0-14.336 12.288-26.624 26.624-26.624h16.384c14.336 0 26.624 12.288 26.624 26.624v17.408h247.808v-17.408c0-14.336 12.288-26.624 26.624-26.624h16.384c14.336 0 26.624 12.288 26.624 26.624v17.408h17.408v169.984h47.104l-30.72 41.984h-29.696l-26.624 75.776c-11.264 31.744-41.984 53.248-75.776 53.248h-188.416c-33.792 0-64.512-21.504-75.776-53.248l-26.624-75.776h-29.696l-30.72-41.984h47.104v-169.984zM392.192 749.056c4.096 11.264 15.36 19.456 27.648 19.456h189.44c12.288 0 23.552-8.192 27.648-19.456l36.864-104.448v-34.816h-41.984v-53.248h41.984v-26.624h-317.44v26.624h41.984v53.248h-41.984v34.816l35.84 104.448zM610.304 706.048c-6.144 16.384-21.504 26.624-37.888 26.624h-115.712c-17.408 0-31.744-10.24-37.888-26.624l-20.48-57.344h233.472l-21.504 57.344zM291.84 373.248c-14.336 0-25.6-11.264-25.6-25.6s11.264-25.6 25.6-25.6h441.344c14.336 0 25.6 11.264 25.6 25.6s-11.264 25.6-25.6 25.6h-441.344zM220.16 199.168h584.704c14.336 0 25.6 11.264 25.6 25.6s-11.264 25.6-25.6 25.6h-584.704c-14.336 0-25.6-11.264-25.6-25.6s11.264-25.6 25.6-25.6zM855.040 127.488h-686.080c-14.336 0-25.6-11.264-25.6-25.6s11.264-25.6 25.6-25.6h687.104c14.336 0 25.6 11.264 25.6 25.6s-12.288 25.6-26.624 25.6z" />
<glyph unicode="&#xe939;" glyph-name="icon-ic-maniobrabilidad" d="M691.2 264.704l-39.936-119.808h-51.2l130.048 380.928h58.368l130.048-380.928h-52.224l-40.96 119.808h-134.144zM816.128 302.592l-37.888 109.568c-8.192 24.576-14.336 47.104-19.456 69.632h-1.024c-6.144-22.528-11.264-46.080-19.456-68.608l-36.864-110.592h114.688zM531.456 197.12c-20.48-9.216-43.008-15.36-66.56-19.456v137.216c40.96 12.288 73.728 44.032 89.088 83.968h56.32l33.792 86.016h-86.016c-16.384 59.392-70.656 102.4-134.144 102.4s-117.76-41.984-134.144-102.4h-108.544l-22.528 27.648c0 1.024 0 1.024 0 2.048 30.72 121.856 139.264 205.824 264.192 205.824 110.592 0 206.848-66.56 248.832-161.792l22.528 57.344c-56.32 91.136-156.672 151.552-271.36 151.552-146.432 0-274.432-99.328-310.272-241.664-6.144-25.6-9.216-51.2-9.216-77.824 0-176.128 143.36-319.488 319.488-319.488 29.696 0 57.344 4.096 84.992 11.264l23.552 57.344zM385.024 178.688c-112.64 16.384-202.752 101.376-226.304 210.944l14.336 9.216h121.856c15.36-39.936 49.152-71.68 90.112-83.968v-136.192zM423.936 392.704c-30.72 0-55.296 24.576-55.296 55.296 0 4.096 1.024 9.216 2.048 13.312 6.144 24.576 27.648 41.984 53.248 41.984 30.72 0 55.296-24.576 55.296-55.296s-24.576-55.296-55.296-55.296z" />
<glyph unicode="&#xe93a;" glyph-name="icon-ic-motor" d="M925.696 476.672l-30.72 92.16c-3.072 10.24-13.312 17.408-24.576 17.408h-51.2c-14.336 0-25.6-11.264-25.6-25.6v-66.56h-33.792l-8.192 69.632c-1.024 13.312-12.288 22.528-25.6 22.528h-68.608l-44.032 61.44c-5.12 7.168-12.288 10.24-20.48 10.24h-71.68v20.48h51.2c14.336 0 25.6 11.264 25.6 25.6s-11.264 25.6-25.6 25.6h-244.736c-14.336 0-25.6-11.264-25.6-25.6s11.264-25.6 25.6-25.6h61.44v-20.48h-81.92c-8.192 0-15.36-4.096-20.48-10.24l-54.272-71.68h-17.408c-14.336 0-25.6-11.264-25.6-25.6v-97.28h-40.96v97.28c0 14.336-11.264 25.6-25.6 25.6s-25.6-11.264-25.6-25.6v-245.76c0-14.336 11.264-25.6 25.6-25.6s25.6 11.264 25.6 25.6v97.28h40.96v-138.24c0-14.336 11.264-25.6 25.6-25.6h82.944l84.992-66.56c4.096-3.072 10.24-5.12 15.36-5.12h289.792c46.080 0 63.488 27.648 63.488 53.248v18.432h51.2v-46.080c0-10.24 6.144-19.456 15.36-23.552 3.072-2.048 7.168-2.048 10.24-2.048 6.144 0 12.288 2.048 16.384 6.144l71.68 61.44c6.144 5.12 9.216 12.288 9.216 19.456v215.040c1.024 3.072 1.024 5.12 0 8.192zM875.52 264.704l-20.48-17.408v16.384c0 14.336-11.264 25.6-25.6 25.6h-102.4c-14.336 0-25.6-11.264-25.6-25.6v-44.032c0 0 0 0 0 0-2.048-1.024-5.12-1.024-12.288-1.024h-280.576l-86.016 65.536c-4.096 3.072-10.24 5.12-15.36 5.12h-66.56v235.52h5.12c8.192 0 15.36 4.096 20.48 10.24l54.272 71.68h261.12l44.032-61.44c5.12-7.168 12.288-10.24 20.48-10.24h59.392l8.192-69.632c1.024-13.312 12.288-22.528 25.6-22.528h81.92c14.336 0 25.6 11.264 25.6 25.6v66.56h7.168l23.552-70.656v-199.68z" />
<glyph unicode="&#xe93b;" glyph-name="icon-ic-off-road" d="M67.584 680.448l3.072-113.664 82.944 62.464zM324.608 470.528c13.312-13.312 27.648-23.552 41.984-32.768l29.696 33.792c-7.168 4.096-14.336 8.192-21.504 13.312l30.72 30.72c10.24 10.24 10.24 26.624 0 35.84-10.24 10.24-26.624 10.24-35.84 0l-30.72-30.72c-17.408 23.552-27.648 49.152-31.744 76.8h152.576c13.312-10.24 32.768-9.216 44.032 3.072 13.312 13.312 13.312 34.816 0 48.128s-34.816 13.312-48.128 0c0 0 0-1.024-1.024-1.024h-148.48c4.096 27.648 14.336 54.272 30.72 77.824l21.504-21.504c5.12-5.12 11.264-7.168 18.432-7.168s13.312 2.048 18.432 7.168c10.24 10.24 10.24 26.624 0 35.84l-22.528 22.528c23.552 18.432 51.2 29.696 78.848 33.792v-30.72c0-14.336 11.264-25.6 25.6-25.6s25.6 11.264 25.6 25.6v33.792c28.672-4.096 56.32-14.336 80.896-32.768l-24.576-24.576c-10.24-10.24-10.24-26.624 0-35.84 5.12-5.12 11.264-7.168 18.432-7.168s13.312 2.048 18.432 7.168l24.576 24.576c18.432-24.576 28.672-52.224 32.768-80.896h-33.792c-14.336 0-25.6-11.264-25.6-25.6s11.264-25.6 25.6-25.6h32.768c-1.024-8.192-3.072-15.36-5.12-22.528l44.032-7.168c19.456 73.728 1.024 154.624-56.32 211.968-84.992 84.992-222.208 84.992-308.224 2.048-2.048-1.024-3.072-2.048-4.096-3.072-2.048-2.048-3.072-4.096-4.096-5.12-78.848-87.040-76.8-221.184 6.144-304.128zM912.384 197.12l45.056 23.552v146.432h-270.336v95.232h-151.552l-100.352-99.328h-90.112c-35.84 0-64.512-28.672-64.512-64.512v-58.368c0-27.648 21.504-51.2 49.152-53.248 5.12-13.312 14.336-24.576 25.6-32.768h-53.248c-4.096 0-8.192 1.024-12.288 3.072l-70.656 34.816h-108.544v-51.2h96.256l59.392-29.696c11.264-5.12 22.528-8.192 34.816-8.192h206.848l92.16-44.032c12.288-6.144 25.6-9.216 38.912-9.216 18.432 0 37.888 6.144 53.248 17.408l50.176 36.864 110.592 1.024 48.128-46.080h51.2v51.2h-30.72l-43.008 41.984c16.384 10.24 28.672 25.6 33.792 45.056zM332.8 239.104c-1.024 0-2.048 1.024-2.048 2.048v58.368c0 7.168 6.144 13.312 13.312 13.312h110.592l100.352 99.328h79.872v-95.232h270.336v-64.512l-43.008-22.528v-15.36c0-11.264-9.216-20.48-20.48-20.48h-35.84c-11.264 0-20.48 9.216-20.48 20.48v33.792h-331.776v-33.792c0-11.264-9.216-20.48-20.48-20.48h-36.864c-11.264 0-20.48 9.216-20.48 20.48v25.6h-43.008zM723.968 157.184l-63.488-47.104c-11.264-8.192-26.624-10.24-38.912-4.096l-102.4 49.152h-45.056c14.336 10.24 24.576 24.576 28.672 40.96h233.472c4.096-15.36 13.312-28.672 24.576-38.912h-36.864z" />
<glyph unicode="&#xe93c;" glyph-name="icon-ic-sasquatch" d="M565.248 466.432c-10.24-10.24-10.24-26.624 0-35.84 5.12-5.12 11.264-7.168 18.432-7.168s13.312 2.048 18.432 7.168l109.568 109.568v-225.28c0-14.336 11.264-25.6 25.6-25.6s25.6 11.264 25.6 25.6v225.28l99.328-99.328c10.24-10.24 26.624-10.24 35.84 0 10.24 10.24 10.24 26.624 0 35.84l-135.168 135.168v61.44l99.328-99.328c10.24-10.24 26.624-10.24 35.84 0 10.24 10.24 10.24 26.624 0 35.84l-135.168 135.168v61.44l99.328-99.328c10.24-10.24 26.624-10.24 35.84 0 10.24 10.24 10.24 26.624 0 35.84l-143.36 143.36c-1.024 1.024-2.048 2.048-4.096 3.072-1.024 0-1.024 1.024-2.048 1.024s-2.048 1.024-2.048 1.024c-1.024 0-2.048 1.024-3.072 1.024s-1.024 0-2.048 1.024c-3.072 1.024-7.168 1.024-10.24 0-1.024 0-1.024 0-2.048-1.024-1.024 0-2.048 0-2.048-1.024-1.024 0-2.048-1.024-2.048-1.024-1.024 0-1.024-1.024-2.048-1.024-1.024-1.024-3.072-2.048-4.096-3.072l-153.6-153.6c-10.24-10.24-10.24-26.624 0-35.84 5.12-5.12 11.264-7.168 18.432-7.168s13.312 2.048 18.432 7.168l109.568 109.568v-61.44l-146.432-145.408c-10.24-10.24-10.24-26.624 0-35.84 5.12-5.12 11.264-7.168 18.432-7.168s13.312 2.048 18.432 7.168l109.568 109.568v-61.44l-146.432-145.408zM210.944 186.88c32.768 0 60.416 20.48 69.632 52.224l10.24 34.816c3.072 9.216 11.264 15.36 20.48 15.36h21.504c9.216 0 18.432-6.144 20.48-15.36l10.24-34.816c9.216-30.72 36.864-52.224 69.632-52.224h8.192c34.816 0 64.512 24.576 71.68 58.368l5.12 26.624c2.048 10.24 11.264 17.408 21.504 17.408h44.032c14.336 0 25.6 11.264 25.6 25.6s-11.264 25.6-25.6 25.6h-43.008c-34.816 0-64.512-24.576-71.68-58.368l-5.12-26.624c-2.048-10.24-11.264-17.408-21.504-17.408h-8.192c-9.216 0-18.432 6.144-20.48 15.36l-10.24 34.816c-9.216 30.72-36.864 52.224-69.632 52.224h-21.504c-32.768 0-60.416-20.48-69.632-52.224l-10.24-34.816c-3.072-9.216-11.264-15.36-20.48-15.36h-8.192c-10.24 0-19.456 7.168-21.504 17.408l-5.12 26.624c-7.168 33.792-36.864 58.368-71.68 58.368h-54.272c-14.336 0-25.6-11.264-25.6-25.6s11.264-25.6 25.6-25.6h53.248c10.24 0 19.456-7.168 21.504-17.408l5.12-26.624c7.168-33.792 36.864-58.368 71.68-58.368h8.192zM844.8 314.88c0-14.336 11.264-25.6 25.6-25.6h102.4c14.336 0 25.6 11.264 25.6 25.6s-11.264 25.6-25.6 25.6h-102.4c-14.336 0-25.6-11.264-25.6-25.6zM972.8 197.12h-337.92c-14.336 0-25.6-11.264-25.6-25.6s11.264-25.6 25.6-25.6h337.92c14.336 0 25.6 11.264 25.6 25.6s-11.264 25.6-25.6 25.6zM686.080 53.76h-163.84c-14.336 0-25.6-11.264-25.6-25.6s11.264-25.6 25.6-25.6h163.84c14.336 0 25.6 11.264 25.6 25.6s-11.264 25.6-25.6 25.6zM440.32 53.76h-256c-14.336 0-25.6-11.264-25.6-25.6s11.264-25.6 25.6-25.6h256c14.336 0 25.6 11.264 25.6 25.6s-11.264 25.6-25.6 25.6z" />
<glyph unicode="&#xe93d;" glyph-name="icon-ic-seggarantizada" d="M662.528 514.56l-150.528-29.696-181.248 30.72c-39.936 5.12-79.872-11.264-105.472-43.008l-36.864-47.104 350.208-136.192h94.208v-33.792l174.080-65.536 52.224 149.504v117.76l-196.608 57.344zM390.144 559.616c-5.12-13.312 1.024-27.648 14.336-32.768 3.072-1.024 6.144-2.048 9.216-2.048 10.24 0 19.456 6.144 23.552 16.384l31.744 78.848 54.272-23.552-11.264 167.936-135.168-105.472 46.080-19.456-32.768-79.872zM384 301.568l-195.584 63.488-23.552-56.32 98.304-37.888-46.080-102.4c-6.144-13.312 0-27.648 13.312-33.792 3.072-1.024 7.168-2.048 10.24-2.048 10.24 0 19.456 6.144 23.552 15.36l47.104 105.472 131.072-51.2v20.48c-1.024 35.84-23.552 67.584-58.368 78.848z" />
<glyph unicode="&#xe93e;" glyph-name="icon-ic-seguridad-auto" d="M147.456 147.968v-28.672c0-21.504 17.408-38.912 38.912-38.912h27.648l126.976 171.008h34.816c14.336 0 27.648-4.096 39.936-10.24l49.152-28.672 21.504 5.12v33.792l-55.296 95.232-69.632 17.408c-16.384 5.12-33.792 2.048-48.128-8.192l-38.912-27.648-126.976-180.224zM467.968 366.080l108.544-285.696h56.32l-111.616 294.912c-20.48 3.072-39.936 3.072-53.248-9.216zM549.888 396.8l68.608-167.936 112.64 201.728c0 0-3.072 65.536-22.528 90.112-18.432 25.6-61.44 34.816-92.16-14.336s-66.56-109.568-66.56-109.568zM760.832 541.184c0 0 19.456-53.248 24.576-50.176s91.136 69.632 91.136 69.632v54.272l-115.712-73.728zM761.856 641.536c0-41.85-33.926-75.776-75.776-75.776s-75.776 33.926-75.776 75.776c0 41.85 33.926 75.776 75.776 75.776s75.776-33.926 75.776-75.776zM566.272 634.368c0-100.101-81.147-181.248-181.248-181.248s-181.248 81.147-181.248 181.248c0 100.101 81.147 181.248 181.248 181.248s181.248-81.147 181.248-181.248z" />
<glyph unicode="&#xe93f;" glyph-name="icon-ic-seguridad-camion" d="M122.88 223.744l25.6-29.696 88.064 54.272v92.16zM353.28 280.064l-116.736-31.744 75.776-166.912h53.248l-47.104 138.24 52.224 12.288c21.504 5.12 43.008 6.144 64.512 3.072l61.44-9.216-40.96-145.408h65.536l48.128 166.912-102.4 30.72c-37.888 12.288-76.8 12.288-113.664 2.048zM568.32 248.32l98.304-54.272 24.576 32.768-122.88 91.136zM520.192 568.832l78.848 99.328-30.72 32.768-88.064-97.28 22.528-33.792-222.208-251.904h287.744v125.952zM439.296 590.336v44.032l1.024 2.048c28.672 11.264 49.152 39.936 49.152 72.704 0 44.032-34.816 78.848-78.848 78.848s-78.848-34.816-78.848-78.848c0-33.792 21.504-62.464 51.2-73.728l-6.144-37.888-52.224-28.672c-28.672-15.36-49.152-43.008-56.32-75.776l-32.768-154.624 225.28 240.64-21.504 11.264zM901.12 600.576c0-117.632-54.098-212.992-120.832-212.992s-120.832 95.36-120.832 212.992c0 117.632 54.098 212.992 120.832 212.992s120.832-95.36 120.832-212.992z" />
<glyph unicode="&#xe940;" glyph-name="icon-ic-seguridadmus" d="M338.944 462.336c0 14.336-11.264 25.6-25.6 25.6h-126.976c-3.072 0-5.12 2.048-5.12 5.12v43.008h62.464v34.816h-62.464v78.848l60.416 99.328c5.12 8.192 13.312 13.312 22.528 13.312h214.016c10.24 0 20.48-6.144 24.576-16.384l48.128-107.52v-57.344c0-14.336 11.264-25.6 25.6-25.6s25.6 11.264 25.6 25.6v30.72h41.984v30.72l-50.176 22.528-45.056 100.352c-12.288 27.648-40.96 46.080-71.68 46.080h-212.992c-26.624 0-52.224-14.336-66.56-37.888l-67.584-111.616v-3.072l-39.936-19.456v-30.72h39.936v-118.784c0-23.552 14.336-44.032 35.84-52.224v-26.624c0-16.384 13.312-29.696 29.696-29.696h18.432c16.384 0 29.696 13.312 29.696 29.696v22.528h69.632c14.336 3.072 25.6 14.336 25.6 28.672zM262.144 708.096l-33.792-83.968h283.648l-38.912 83.968zM815.104 611.84l-17.408-118.784 112.64 28.672zM575.488 521.728c-140.288 0-253.952-113.664-253.952-253.952 0-93.184 50.176-174.080 124.928-219.136l30.72 41.984c-9.216 5.12-18.432 11.264-27.648 18.432l24.576 24.576c10.24 10.24 10.24 26.624 0 35.84-10.24 10.24-26.624 10.24-35.84 0l-24.576-24.576c-20.48 27.648-34.816 60.416-39.936 96.256h33.792c14.336 0 25.6 11.264 25.6 25.6s-11.264 25.6-25.6 25.6h-33.792c4.096 35.84 18.432 68.608 38.912 96.256l121.856-121.856c0 0 0 0 0 0 0-21.504 17.408-39.936 39.936-39.936 21.504 0 39.936 17.408 39.936 39.936 0 21.504-17.408 39.936-39.936 39.936-2.048 0-4.096 0-6.144-1.024l-118.784 120.832c27.648 21.504 60.416 36.864 97.28 41.984v-36.864c0-14.336 11.264-25.6 25.6-25.6s25.6 11.264 25.6 25.6v37.888c36.864-4.096 71.68-18.432 99.328-39.936l-27.648-27.648c-10.24-10.24-10.24-26.624 0-35.84 5.12-5.12 11.264-7.168 18.432-7.168s13.312 2.048 18.432 7.168l27.648 27.648c22.528-28.672 37.888-62.464 41.984-100.352h-39.936c-14.336 0-25.6-11.264-25.6-25.6s11.264-25.6 25.6-25.6h40.96c-5.12-37.888-19.456-71.68-41.984-100.352l-28.672 27.648c-10.24 10.24-26.624 10.24-35.84 0-10.24-10.24-10.24-26.624 0-35.84l27.648-27.648c-8.192-6.144-17.408-12.288-26.624-17.408l30.72-41.984c75.776 45.056 126.976 126.976 126.976 221.184 0 140.288-113.664 253.952-253.952 253.952z" />
<glyph unicode="&#xe941;" glyph-name="icon-ic-suspension" d="M912.384 231.936h-90.112c-8.192 18.432-25.6 37.888-56.32 50.176 0 0 1.024 1.024 1.024 1.024 22.528 18.432 35.84 44.032 38.912 72.704 5.12 59.392-37.888 111.616-97.28 116.736-28.672 3.072-56.32-6.144-78.848-24.576-4.096-3.072-8.192-7.168-11.264-11.264l-276.48 26.624c-3.072 4.096-6.144 9.216-9.216 13.312-18.432 22.528-44.032 35.84-72.704 38.912s-56.32-6.144-78.848-24.576c-4.096-3.072-7.168-6.144-10.24-10.24-2.048 1.024-3.072 4.096-3.072 6.144l9.216 99.328c1.024 9.216 9.216 16.384 18.432 15.36l152.576-14.336c8.192-1.024 16.384 2.048 21.504 8.192l95.232 108.544c3.072 4.096 8.192 5.12 12.288 5.12l122.88-11.264-10.24-103.424c-1.024-14.336 9.216-26.624 23.552-27.648l199.68-18.432c4.096-4.096 9.216-7.168 15.36-7.168l19.456-2.048-14.336-147.456c-1.024-14.336 9.216-26.624 23.552-27.648 1.024 0 2.048 0 2.048 0 13.312 0 24.576 10.24 25.6 23.552l5.12 54.272c4.096-6.144 10.24-10.24 18.432-11.264 1.024 0 2.048 0 2.048 0 13.312 0 24.576 10.24 25.6 23.552l16.384 173.056c1.024 14.336-9.216 26.624-23.552 27.648s-26.624-9.216-27.648-23.552l-5.12-53.248c-4.096 6.144-10.24 10.24-18.432 11.264l-28.672 3.072c-1.024 1.024-2.048 2.048-3.072 3.072l-55.296 106.496c-11.264 20.48-31.744 34.816-55.296 36.864l-252.928 23.552c-21.504 2.048-41.984-6.144-56.32-22.528l-86.016-98.304-140.288 13.312c-18.432 2.048-35.84-4.096-50.176-15.36s-22.528-27.648-24.576-46.080l-9.216-99.328c-2.048-23.552 10.24-45.056 28.672-56.32-2.048-6.144-3.072-11.264-3.072-17.408-3.072-28.672 6.144-56.32 24.576-78.848 4.096-5.12 9.216-10.24 14.336-14.336-64.512-13.312-95.232-47.104-97.28-48.128-9.216-10.24-9.216-26.624 1.024-35.84s26.624-9.216 35.84 1.024c1.024 2.048 36.864 37.888 116.736 37.888 82.944 0 138.24-40.96 139.264-40.96 3.072-3.072 7.168-4.096 11.264-5.12l57.344-8.192c13.312-2.048 25.6-8.192 34.816-17.408l52.224-49.152c5.12-4.096 11.264-7.168 17.408-7.168 1.024 0 3.072 0 4.096 0 8.192 1.024 15.36 6.144 18.432 13.312 0 1.024 38.912 76.8 123.904 75.776 72.704-1.024 78.848-34.816 78.848-37.888 1.024-13.312 12.288-24.576 25.6-24.576h108.544c14.336 0 25.6 11.264 25.6 25.6s-7.168 25.6-21.504 25.6zM746.496 676.352l37.888-73.728-139.264 13.312 7.168 77.824 79.872-7.168c6.144-1.024 11.264-5.12 14.336-10.24zM698.368 422.4c2.048 0 4.096 0 5.12 0 15.36-1.024 28.672-8.192 37.888-20.48 9.216-11.264 14.336-26.624 12.288-40.96s-8.192-28.672-20.48-37.888c-11.264-9.216-26.624-14.336-40.96-12.288-30.72 3.072-53.248 30.72-51.2 61.44 1.024 15.36 8.192 28.672 20.48 37.888 11.264 7.168 24.576 12.288 36.864 12.288zM250.88 464.384c2.048 0 3.072 0 5.12 0 15.36-1.024 28.672-8.192 37.888-20.48 9.216-11.264 14.336-26.624 12.288-40.96-3.072-30.72-30.72-53.248-61.44-51.2-15.36 1.024-28.672 8.192-37.888 20.48-9.216 11.264-14.336 26.624-12.288 40.96 3.072 29.696 27.648 51.2 56.32 51.2zM547.84 217.6l-29.696 28.672c-17.408 16.384-38.912 27.648-63.488 30.72l-51.2 7.168c-12.288 8.192-44.032 26.624-88.064 37.888 23.552 17.408 39.936 45.056 43.008 75.776 0 0 0 0 0 0 0 4.096 0 8.192 0 13.312l235.52-22.528c-1.024-4.096-2.048-8.192-2.048-12.288-3.072-28.672 6.144-56.32 24.576-78.848 5.12-6.144 10.24-11.264 15.36-15.36-39.936-16.384-67.584-44.032-83.968-64.512z" />
<glyph unicode="&#xe942;" glyph-name="icon-ic-tecnologia" d="M512 797.184c-160.768 0-300.032-108.544-338.944-264.192-7.168-27.648-10.24-56.32-10.24-84.992 0-192.512 156.672-349.184 349.184-349.184s349.184 156.672 349.184 349.184-156.672 349.184-349.184 349.184zM512 745.984c140.288 0 258.048-97.28 289.792-228.352l-24.576-29.696h-118.784c-17.408 64.512-76.8 112.64-146.432 112.64-68.608 0-129.024-46.080-147.456-112.64h-117.76l-24.576 29.696c0 1.024 0 2.048 0 2.048 33.792 134.144 152.576 226.304 289.792 226.304zM512 387.584c-32.768 0-60.416 26.624-60.416 60.416 0 5.12 1.024 10.24 2.048 14.336 7.168 26.624 30.72 45.056 58.368 45.056 32.768 0 60.416-26.624 60.416-60.416s-27.648-59.392-60.416-59.392zM221.184 383.488l16.384 10.24h133.12c16.384-44.032 53.248-77.824 99.328-92.16v-148.48c-123.904 17.408-222.208 110.592-248.832 230.4zM557.056 153.088v149.504c45.056 14.336 80.896 48.128 97.28 91.136h133.12l16.384-10.24c-27.648-118.784-124.928-211.968-246.784-230.4z" />
<glyph unicode="&#xe943;" glyph-name="icon-ic-trail" d="M609.28 242.176h-87.040c-10.24 29.696-35.84 52.224-66.56 59.392v291.84c34.816 8.192 61.44 34.816 69.632 69.632h75.776l-27.648-57.344 64.512-31.744 79.872 165.888-64.512 31.744-27.648-57.344h-103.424c-12.288 35.84-47.104 61.44-87.040 61.44s-73.728-25.6-87.040-61.44h-70.656l15.36 31.744-64.512 31.744-79.872-165.888 64.512-31.744 39.936 82.944h93.184c7.168-30.72 29.696-56.32 59.392-66.56v-297.984c-25.6-9.216-47.104-29.696-56.32-56.32h-92.16v66.56h-71.68v-184.32h71.68v66.56h89.088c9.216-40.96 46.080-71.68 90.112-71.68s80.896 30.72 90.112 71.68h83.968v-71.68h71.68v184.32h-71.68v-61.44zM435.2 723.456c22.528 0 40.96-18.432 40.96-40.96s-18.432-40.96-40.96-40.96-40.96 18.432-40.96 40.96 18.432 40.96 40.96 40.96zM435.2 170.496c-22.528 0-40.96 18.432-40.96 40.96s18.432 40.96 40.96 40.96 40.96-18.432 40.96-40.96-18.432-40.96-40.96-40.96zM875.52 293.376l-22.528 178.176-58.368-48.128c-88.064 92.16-226.304 50.176-257.024-59.392h51.2c30.72 65.536 101.376 89.088 174.080 30.72l-61.44-51.2 174.080-50.176z" />
<glyph unicode="&#xe944;" glyph-name="icon-ic-transmision" d="M924.672 740.864c0 53.248-43.008 96.256-96.256 96.256s-96.256-43.008-96.256-96.256c0-44.032 29.696-81.92 70.656-93.184v-157.696h-256v157.696c40.96 11.264 70.656 48.128 70.656 93.184 0 53.248-43.008 96.256-96.256 96.256s-96.256-43.008-96.256-96.256c0-44.032 29.696-81.92 70.656-93.184v-157.696h-256v157.696c40.96 11.264 70.656 48.128 70.656 93.184 0 53.248-43.008 96.256-96.256 96.256s-96.256-43.008-96.256-96.256c0-44.032 29.696-81.92 70.656-93.184v-366.592c-40.96-11.264-70.656-48.128-70.656-93.184 0-53.248 43.008-96.256 96.256-96.256s96.256 43.008 96.256 96.256c0 44.032-29.696 81.92-70.656 93.184v157.696h256v-157.696c-40.96-11.264-70.656-48.128-70.656-93.184 0-53.248 43.008-96.256 96.256-96.256s96.256 43.008 96.256 96.256c0 44.032-29.696 81.92-70.656 93.184v157.696h307.2v208.896c39.936 11.264 70.656 49.152 70.656 93.184zM475.136 740.864c0 24.576 20.48 45.056 45.056 45.056s45.056-20.48 45.056-45.056-20.48-45.056-45.056-45.056-45.056 20.48-45.056 45.056zM167.936 740.864c0 24.576 20.48 45.056 45.056 45.056s45.056-20.48 45.056-45.056-20.48-45.056-45.056-45.056-45.056 20.48-45.056 45.056zM259.072 187.904c0-24.576-20.48-45.056-45.056-45.056s-45.056 20.48-45.056 45.056 20.48 45.056 45.056 45.056 45.056-19.456 45.056-45.056zM566.272 187.904c0-24.576-20.48-45.056-45.056-45.056s-45.056 20.48-45.056 45.056 20.48 45.056 45.056 45.056 45.056-19.456 45.056-45.056zM828.416 695.808c-24.576 0-45.056 20.48-45.056 45.056s20.48 45.056 45.056 45.056 45.056-20.48 45.056-45.056-20.48-45.056-45.056-45.056z" />
<glyph unicode="&#xe945;" glyph-name="icon-ic-vadeo" d="M520.192 281.088c138.24 0 250.88 112.64 250.88 250.88s-112.64 250.88-250.88 250.88c-115.712 0-215.040-77.824-243.712-189.44-5.12-19.456-7.168-39.936-7.168-61.44 0-138.24 112.64-250.88 250.88-250.88zM311.296 485.888l11.264 7.168h95.232c12.288-31.744 37.888-56.32 70.656-65.536v-106.496c-87.040 12.288-158.72 78.848-177.152 164.864zM520.192 488.96c-23.552 0-43.008 19.456-43.008 43.008 0 4.096 0 7.168 1.024 10.24 5.12 19.456 22.528 32.768 41.984 32.768 23.552 0 43.008-19.456 43.008-43.008s-19.456-43.008-43.008-43.008zM551.936 320v107.52c31.744 10.24 58.368 34.816 69.632 65.536h95.232l11.264-7.168c-18.432-86.016-88.064-152.576-176.128-165.888zM520.192 745.984c100.352 0 185.344-69.632 207.872-163.84l-17.408-21.504h-84.992c-12.288 46.080-55.296 80.896-105.472 80.896-49.152 0-92.16-32.768-105.472-80.896h-84.992l-17.408 21.504c0 1.024 0 1.024 0 2.048 23.552 95.232 109.568 161.792 207.872 161.792zM812.032 218.624l-10.24 52.224-73.728-84.992c-10.24-12.288-25.6-18.432-40.96-16.384-15.36 1.024-29.696 10.24-36.864 23.552l-39.936 67.584-52.224-72.704c-9.216-12.288-23.552-20.48-38.912-20.48s-29.696 7.168-38.912 20.48l-49.152 68.608-54.272-72.704c-9.216-12.288-23.552-19.456-38.912-19.456 0 0 0 0 0 0-15.36 0-28.672 7.168-37.888 19.456l-67.584 89.088-12.288-53.248c-2.048-9.216-14.336-29.696-67.584-55.296l21.504-46.080c32.768 15.36 57.344 31.744 73.728 50.176l12.288-15.36c19.456-24.576 48.128-38.912 78.848-38.912 0 0 1.024 0 1.024 0 31.744 0 60.416 15.36 78.848 39.936l12.288 16.384 8.192-11.264c18.432-26.624 48.128-40.96 80.896-40.96s61.44 15.36 80.896 40.96l6.144 8.192c16.384-27.648 44.032-46.080 76.8-49.152s63.488 9.216 84.992 33.792l14.336 16.384c14.336-17.408 35.84-33.792 65.536-50.176l24.576 45.056c-36.864 18.432-58.368 37.888-61.44 55.296z" />
<glyph unicode="&#xe946;" glyph-name="centrarubic" d="M511.974 350.451c53.773 0 97.365 43.593 97.365 97.37 0 53.773-43.593 97.367-97.365 97.367-53.777 0-97.37-43.594-97.37-97.367 0-53.777 43.593-97.37 97.37-97.37zM761.719 490.564h177.152v-85.163h-177.148c-17.882-105.822-101.308-189.257-207.125-207.151v-177.135h-85.163v177.126c-105.837 17.877-189.285 101.321-207.171 207.159h-176.724v85.163h176.726c17.891 105.828 101.336 189.265 207.168 207.142v176.752h85.163v-176.76c105.813-17.895 189.235-101.322 207.121-207.134zM511.996 616.098c-92.937 0-168.125-75.188-168.125-168.124s75.188-168.124 168.125-168.124c92.932 0 168.124 75.187 168.124 168.124s-75.191 168.124-168.124 168.124z" />
<glyph unicode="&#xe947;" glyph-name="pin-fill" horiz-adv-x="768" d="M-0.042 575.952v-18.69c0-91.401 31.108-180.246 88.203-251.551l295.844-369.711 295.846 369.711c57.092 71.433 88.201 160.149 88.201 251.551v18.69c0 212.123-171.925 384.048-384.046 384.048-212.122 0-384.047-171.925-384.047-384.048z" />
<glyph unicode="&#xe948;" glyph-name="ic-world" d="M512 913.067c-256.427 0-465.493-209.067-465.493-465.493s208.64-465.493 465.493-465.493 465.493 208.64 465.493 465.493-209.067 465.493-465.493 465.493zM840.533 644.267h-140.8c-11.093 54.613-26.88 107.947-47.36 160 78.933-31.147 145.067-87.893 188.16-160zM895.573 447.573c0-40.107-5.973-78.507-17.493-114.773h-164.693c4.267 37.973 6.827 76.373 6.827 115.2s-2.133 76.8-6.4 114.347h164.693c11.52-36.267 17.493-74.667 17.493-114.773zM128.427 447.573c0 40.107 5.973 78.507 17.493 114.773h164.693c-4.267-37.547-6.4-75.52-6.4-114.347s2.133-77.227 6.827-115.2h-165.12c-11.52 36.267-17.493 74.667-17.493 114.773zM386.133 448c0 38.4 2.56 76.8 7.253 114.347h236.8c4.693-37.547 7.253-75.52 7.253-114.347s-2.56-77.227-7.253-115.2h-236.8c-4.693 37.973-7.68 76.373-7.68 115.2zM552.533 829.013c28.16-59.733 49.493-121.173 63.573-184.747h-208.213c14.080 63.573 35.413 125.013 63.573 184.747 13.227 1.28 26.88 2.133 40.533 2.133s27.307-0.853 40.533-2.133zM371.627 804.267c-20.48-52.053-36.267-105.387-47.36-160h-140.8c43.093 72.107 109.227 128.853 188.16 160zM183.467 250.88h141.227c11.093-54.613 26.88-107.947 47.787-160-79.36 31.147-145.493 87.893-188.587 160zM471.893 66.133c-28.16 59.733-49.493 121.173-64 184.747h207.787c-14.080-63.573-35.84-125.44-64-184.747-13.227-1.28-26.453-2.133-40.107-2.133s-26.88 0.853-40.107 2.133zM651.947 90.88c20.48 52.053 36.267 105.387 47.787 160h141.227c-43.52-72.107-109.653-128.853-188.587-160z" />
<glyph unicode="&#xe949;" glyph-name="ic-map_ampliar" horiz-adv-x="1067" d="M460.574 832h-298.668v-298.667h85.333v213.333h213.334v85.333zM631.241 746.667h213.333v-213.333h85.333v298.667h-298.667v-85.333zM844.574 149.333v213.333h85.333v-298.667h-298.667v85.333h213.333zM247.24 362.667v-213.333h213.334v-85.333h-298.668v298.667h85.333z" />
<glyph unicode="&#xe94a;" glyph-name="ic-map_colapse" d="M384 789.333v-213.333h-213.333v-85.333h298.667v298.667h-85.333zM640 789.333v-213.333h213.333v-85.333h-298.667v298.667h85.333zM554.667 405.333h298.667v-85.333h-213.333v-213.333h-85.333v298.667zM170.667 320h213.333v-213.333h85.333v298.667h-298.667v-85.333z" />
<glyph unicode="&#xe94b;" glyph-name="mode-light" d="M552.632 847.401c0 21.343-17.302 38.646-38.646 38.646s-38.646-17.302-38.646-38.646v0-97.075c0-21.343 17.302-38.646 38.646-38.646s38.646 17.302 38.646 38.646v0 97.034zM211.845 761.139c6.993 7.007 16.661 11.342 27.341 11.342s20.348-4.335 27.34-11.341l68.937-68.937c6.992-6.992 11.316-16.651 11.316-27.32 0-21.338-17.298-38.637-38.637-38.637-10.669 0-20.328 4.325-27.32 11.316l-68.936 68.895c-6.995 6.991-11.321 16.65-11.321 27.32s4.327 20.33 11.321 27.32v0zM86.917 459.018c0 21.34 17.285 38.666 38.625 38.666h97.075c21.343 0 38.646-17.302 38.646-38.646s-17.302-38.646-38.646-38.646v0h-97.075c-21.332 0-38.625 17.293-38.625 38.625v0zM514.007 206.336c21.299 0 38.625-17.285 38.625-38.625v-97.075c0-21.343-17.302-38.646-38.646-38.646s-38.646 17.302-38.646 38.646v0 97.075c0 21.34 17.326 38.625 38.666 38.625zM335.462 225.833c6.992 6.992 11.316 16.651 11.316 27.32 0 21.338-17.298 38.637-38.637 38.637-10.669 0-20.328-4.325-27.32-11.316l-68.936-68.936c-6.992-6.992-11.316-16.651-11.316-27.32 0-21.338 17.298-38.637 38.637-38.637 10.669 0 20.328 4.325 27.32 11.316l68.936 68.936zM941.056 459.018c0-21.332-17.293-38.625-38.625-38.625h-97.075c-21.332 0-38.625 17.293-38.625 38.625s17.293 38.625 38.625 38.625h97.075c21.34 0 38.625-17.285 38.625-38.625zM761.446 156.897c6.992-6.992 16.651-11.316 27.32-11.316 21.338 0 38.637 17.298 38.637 38.637 0 10.669-4.325 20.328-11.316 27.32l-68.936 68.936c-6.992 6.992-16.651 11.316-27.32 11.316-21.338 0-38.637-17.298-38.637-38.637 0-10.669 4.325-20.328 11.316-27.32l68.936-68.936zM692.511 637.563c-6.995 6.991-11.321 16.65-11.321 27.32s4.327 20.33 11.321 27.32l68.936 68.936c6.992 6.992 16.651 11.316 27.32 11.316 21.338 0 38.637-17.298 38.637-38.637 0-10.669-4.325-20.328-11.316-27.32l-68.936-68.936c-6.991-6.995-16.65-11.321-27.32-11.321s-20.33 4.327-27.32 11.321v0zM389.243 458.977c0 68.905 55.859 124.764 124.764 124.764s124.764-55.859 124.764-124.764v0c0-68.905-55.859-124.764-124.764-124.764s-124.764 55.859-124.764 124.764v0zM514.007 661.074c-111.592 0-202.056-90.463-202.056-202.056s90.463-202.056 202.056-202.056v0c111.592 0 202.056 90.463 202.056 202.056s-90.463 202.056-202.056 202.056v0z" />
<glyph unicode="&#xe94c;" glyph-name="mode-dark" d="M479.109 839.905c6.284 13.702 19.882 23.047 35.663 23.047 0.811 0 1.617-0.025 2.416-0.073l-0.11 0.005c212.588-12.989 380.080-188.575 380.080-403.28 0-223.117-180.872-403.988-403.988-403.988-214.134 0-389.357 166.602-403.118 377.256l-0.063 1.202c-0.048 0.726-0.075 1.573-0.075 2.427 0 21.604 17.513 39.117 39.117 39.117 11.546 0 21.924-5.003 29.085-12.959l0.031-0.035 8.11-9.052c42.217-41.107 99.953-66.458 163.609-66.458 129.576 0 234.619 105.042 234.619 234.619 0 63.901-25.546 121.835-66.983 164.147l-10.364 10.364c-7.084 7.080-11.466 16.862-11.466 27.669 0 5.809 1.266 11.323 3.538 16.279l-0.1-0.244zM609.198 764.047c22.144-41.862 35.144-91.505 35.144-144.184 0-0.013 0-0.025 0-0.038v0.002c-0.171-172.655-140.174-312.552-312.852-312.552-51.777 0-100.617 12.578-143.63 34.845l1.744-0.821c48.644-122.537 166.174-207.6 303.572-207.6 90.219 0 171.872 36.676 230.862 95.932l0.012 0.012c58.681 58.917 94.96 140.185 94.96 229.925 0 138.246-86.095 256.383-207.593 303.719l-2.219 0.761z" />
<glyph unicode="&#xe94d;" glyph-name="carroceria" d="M920.16 590.912h-59.552l-38.4 120.032c-19.889 60.108-75.556 102.716-141.18 102.752h-340.004c-0.17 0.001-0.372 0.001-0.574 0.001-65.493 0-121.022-42.661-140.315-101.709l-0.295-1.044-38.4-120.064h-59.52c-25.982-0.036-47.036-21.089-47.072-47.068v-26.884c0.109-25.927 21.134-46.908 47.068-46.944h16.324c-9.153-39.488-14.4-84.83-14.4-131.397 0-0.066 0-0.131 0-0.197v0.010-225.696c0.036-25.982 21.089-47.036 47.068-47.072h78.756c25.982 0.036 47.036 21.089 47.072 47.068v71.972h470.592v-72.032c0.036-25.982 21.089-47.036 47.068-47.072h78.756c25.982 0.036 47.036 21.089 47.072 47.068v226.66c0 0.042 0 0.091 0 0.141 0 46.584-5.247 91.942-15.181 135.516l0.781-4.073h16.32c25.982 0.036 47.036 21.089 47.072 47.068v26.884c-2.075 25.588-23.118 45.631-48.945 46.111l-0.047 0.001zM244.064 542.912l45.152 140.224c7.303 22.208 27.692 38.027 51.828 38.399l0.044 0.001h339.968c0.14 0.001 0.306 0.002 0.472 0.002 24.185 0 44.628-16.017 51.301-38.022l0.099-0.38 45.152-140.224c0.283-0.864 0.445-1.858 0.445-2.89 0-5.302-4.298-9.6-9.6-9.6-0.157 0-0.312 0.004-0.467 0.011l0.022-0.001h-514.848c-0.257-0.025-0.556-0.040-0.858-0.040-5.143 0-9.312 4.169-9.312 9.312 0 1.151 0.209 2.254 0.591 3.272l-0.021-0.064zM342.016 313.376h-95.104c-0.154-0.003-0.335-0.005-0.517-0.005-15.623 0-28.288 12.665-28.288 28.288 0 0.182 0.002 0.363 0.005 0.544v-0.027 45.152c0.274 16.119 13.405 29.081 29.564 29.081 1.435 0 2.846-0.102 4.226-0.3l-0.158 0.019 88.352-14.4c11.734-2.027 21.015-10.665 23.954-21.872l0.046-0.208 6.72-30.72c0.437-1.895 0.688-4.071 0.688-6.305 0-16.153-13.095-29.248-29.248-29.248-0.084 0-0.168 0-0.253 0.001h0.013zM803.008 342.176c0.003-0.154 0.005-0.335 0.005-0.517 0-15.623-12.665-28.288-28.288-28.288-0.182 0-0.363 0.002-0.544 0.005h-95.045c-15.743 0.213-28.422 13.025-28.422 28.798 0 2.040 0.212 4.030 0.615 5.95l-0.033-0.188 6.72 30.72c2.716 11.567 12.133 20.338 23.843 22.061l0.157 0.019 88.352 14.4c1.376 0.231 2.96 0.363 4.576 0.363 16.047 0 29.056-13.009 29.056-29.056 0-0.037 0-0.075 0-0.112v0.006-44.16z" />
<glyph unicode="&#xe94e;" glyph-name="puertas" d="M54.752 740.576c0.614 0.002 1.341 0.003 2.068 0.003 51.316 0 101.496-4.869 150.101-14.17l-4.969 0.791c17.896-4.358 32.207-16.794 39.061-33.132l0.139-0.372 47.168-119.52 34.912 109.152c18.181 54.876 69.005 93.773 128.922 93.824h310.406c0.158 0.001 0.346 0.001 0.533 0.001 59.795 0 110.491-38.956 128.094-92.872l0.269-0.953 35.2-109.696h54.4c23.687-0.036 42.885-19.201 42.976-42.871v-24.585c-0.073-23.733-19.329-42.944-43.072-42.944 0 0 0 0 0 0h-14.912c8.36-36.048 13.152-77.441 13.152-119.954 0-0.050 0-0.1 0-0.15v0.008-206.112c-0.036-23.725-19.278-42.944-43.008-42.944 0 0 0 0 0 0h-71.936c-23.717 0-42.944 19.227-42.944 42.944v0 65.664h-429.728v-65.76c-0.018-23.723-19.226-42.953-42.939-43.008h-71.909c0 0 0 0 0 0-23.772 0-43.049 19.244-43.104 43.003v129.189h-177.76c-0.172-0.002-0.375-0.003-0.579-0.003-30.521 0-55.264 24.743-55.264 55.264 0 0.192 0.001 0.384 0.003 0.576v-0.029 363.968c-0.011 0.396-0.017 0.862-0.017 1.329 0 29.479 23.897 53.376 53.376 53.376 0.478 0 0.955-0.006 1.431-0.019l-0.070 0.001zM851.232 529.792l-41.248 128c-6.595 20.365-25.256 34.889-47.356 35.2h-310.436c-0.142 0.001-0.309 0.002-0.477 0.002-22.119 0-40.805-14.696-46.827-34.856l-0.089-0.346-41.248-128c-0.246-0.773-0.388-1.663-0.388-2.585 0-3.913 2.554-7.23 6.086-8.374l0.062-0.017c0.736-0.255 1.583-0.403 2.466-0.403 0.191 0 0.38 0.007 0.567 0.020l-0.025-0.001h470.4c0.238-0.024 0.515-0.037 0.794-0.037 4.431 0 8.065 3.411 8.42 7.751l0.002 0.030c0.001 0.041 0.001 0.090 0.001 0.139 0 1.256-0.259 2.451-0.727 3.535l0.022-0.058zM755.776 320.832c1.751-0.407 3.762-0.641 5.827-0.641 0.067 0 0.133 0 0.2 0.001h86.806c0.144-0.003 0.314-0.005 0.484-0.005 14.113 0 25.585 11.307 25.851 25.356v42.201c-0.286 14.731-12.295 26.563-27.067 26.563-0.148 0-0.296-0.001-0.443-0.004h0.022c-1.153-0.022-2.262-0.102-3.353-0.24l0.153 0.016-80.672-13.184c-10.729-1.818-19.224-9.702-21.91-19.938l-0.042-0.19-6.144-28.032c-0.424-1.781-0.667-3.826-0.667-5.928 0-12.719 8.898-23.36 20.809-26.038l0.178-0.034zM340 346.336h0.864c-0.003-0.134-0.004-0.293-0.004-0.452 0-14.106 11.31-25.571 25.357-25.82h87.799c14.393 0.107 26.018 11.8 26.018 26.207 0 0.124-0.001 0.248-0.003 0.371v-0.019c-0.056 1.87-0.263 3.655-0.61 5.388l0.034-0.204-6.144 28.032c-2.451 10.576-11.049 18.602-21.745 20.175l-0.143 0.017-80.736 13.152c-1.24 0.205-2.669 0.322-4.125 0.322-13.224 0-24.19-9.664-26.222-22.314l-0.020-0.152c-0.191-1.056-0.3-2.272-0.3-3.513 0-0.25 0.004-0.499 0.013-0.747l-0.001 0.036zM54.752 506.144h200.928l-66.848 167.456s-10.080 2.208-27.936 4.448c-30.556 4.285-65.855 6.732-101.726 6.732-1.52 0-3.038-0.004-4.556-0.013l0.234 0.001z" />
<glyph unicode="&#xe94f;" glyph-name="color-exterior" d="M759.136 445.952l-426.816 425.248c-9.703 9.683-23.096 15.67-37.888 15.67-29.624 0-53.638-24.015-53.638-53.638 0-14.832 6.020-28.257 15.749-37.967l70.401-70.401-278.784-278.912c-14.704-14.698-23.799-35.007-23.799-57.44s9.095-42.742 23.799-57.44l298.048-298.048c14.673-14.758 34.99-23.892 57.44-23.892 22.291 0 42.478 9.005 57.123 23.576l298.365 298.365c14.689 14.705 23.773 35.012 23.773 57.44s-9.084 42.735-23.773 57.441l0.001-0.001zM143.84 388.352l259.744 259.712 259.808-259.552zM891.36 307.232v0s-108.48-117.344-108.48-189.664c0-59.859 48.525-108.384 108.384-108.384s108.384 48.525 108.384 108.384v0c0 72.32-108.256 189.664-108.256 189.664z" />
</font>
</defs>
</svg>
